<svg width="287" height="287" viewBox="0 0 287 287" fill="none" xmlns="http://www.w3.org/2000/svg">
<mask id="path-1-inside-1_4_78" fill="white">
<path fill-rule="evenodd" clip-rule="evenodd" d="M44.8182 188.236L143.418 286.836L242.018 188.236C266.771 163.484 266.771 123.352 242.018 98.5999C217.266 73.8476 177.134 73.8476 152.382 98.6L143.418 107.564L134.455 98.6C109.702 73.8476 69.5706 73.8476 44.8182 98.6C20.0658 123.352 20.0658 163.484 44.8182 188.236Z"/>
</mask>
<path d="M143.418 286.836L132.662 297.593L143.418 308.349L154.175 297.593L143.418 286.836ZM44.8182 188.236L55.5746 177.48L44.8182 188.236ZM242.018 188.236L252.775 198.993V198.993L242.018 188.236ZM143.418 107.564L132.662 118.32L143.418 129.076L154.175 118.32L143.418 107.564ZM44.8182 98.6L55.5746 109.356L44.8182 98.6ZM154.175 276.08L55.5746 177.48L34.0619 198.993L132.662 297.593L154.175 276.08ZM231.262 177.48L132.662 276.08L154.175 297.593L252.775 198.993L231.262 177.48ZM231.262 109.356C250.074 128.168 250.074 158.668 231.262 177.48L252.775 198.993C283.468 168.3 283.468 118.537 252.775 87.8436L231.262 109.356ZM163.138 109.356C181.95 90.5445 212.45 90.5445 231.262 109.356L252.775 87.8436C222.082 57.1506 172.318 57.1507 141.625 87.8436L163.138 109.356ZM154.175 118.32L163.138 109.356L141.625 87.8436L132.662 96.8073L154.175 118.32ZM123.698 109.356L132.662 118.32L154.175 96.8073L145.211 87.8436L123.698 109.356ZM55.5746 109.356C74.3864 90.5445 104.886 90.5445 123.698 109.356L145.211 87.8436C114.518 57.1506 64.7548 57.1507 34.0618 87.8436L55.5746 109.356ZM55.5746 177.48C36.7628 158.668 36.7627 128.168 55.5746 109.356L34.0618 87.8436C3.36884 118.537 3.36891 168.3 34.0619 198.993L55.5746 177.48Z" fill="#0088FF" mask="url(#path-1-inside-1_4_78)"/>
</svg>
