<svg width="592" height="449" viewBox="0 0 592 449" fill="none" xmlns="http://www.w3.org/2000/svg">
<g opacity="0.8">
<g opacity="0.5">
<g opacity="0.5">
<g opacity="0.5">
<g opacity="0.5">
<path opacity="0.5" d="M584.252 104.606C588.531 104.606 592 100.869 592 96.258C592 91.6475 588.531 87.9099 584.252 87.9099C579.972 87.9099 576.503 91.6475 576.503 96.258C576.503 100.869 579.972 104.606 584.252 104.606Z" fill="white" fill-opacity="0.2"/>
</g>
</g>
</g>
</g>
<g opacity="0.8">
<g opacity="0.8">
<path opacity="0.8" d="M573.062 23.298C573.959 17.7944 570.223 12.6064 564.72 11.7103C559.216 10.8142 554.028 14.5494 553.132 20.0529C552.236 25.5565 555.971 30.7445 561.475 31.6406C566.978 32.5366 572.166 28.8015 573.062 23.298Z" fill="white" fill-opacity="0.2"/>
</g>
</g>
<g opacity="0.8">
<g opacity="0.8">
<path opacity="0.8" d="M108.721 33.3311C110.242 38.7517 107.076 44.3895 101.656 45.9102C96.235 47.4308 90.5972 44.2654 89.0765 38.8448C87.5558 33.4242 90.7213 27.7864 96.1419 26.2657C101.562 24.7347 107.2 27.9002 108.721 33.3311Z" fill="white" fill-opacity="0.2"/>
</g>
</g>
<g opacity="0.8">
<g opacity="0.8">
<g opacity="0.8">
<g opacity="0.8">
<path opacity="0.8" d="M512.359 337.268C514.614 336.399 517.221 337.237 518.472 339.316C520.593 342.854 517.727 347.809 512.421 346.837C507.559 344.478 508.397 338.799 512.359 337.268Z" fill="white" fill-opacity="0.2"/>
</g>
</g>
</g>
</g>
<g opacity="0.8">
<g opacity="0.8">
<path opacity="0.8" d="M540.96 323.746C543.463 328.794 541.404 334.918 536.356 337.421C531.308 339.925 525.184 337.866 522.681 332.818C520.177 327.77 522.236 321.646 527.284 319.142C532.332 316.639 538.456 318.697 540.96 323.746Z" fill="white" fill-opacity="0.2"/>
</g>
</g>
<g opacity="0.8">
<g opacity="0.8">
<path opacity="0.8" d="M544.054 12.4342C547.487 12.4342 550.271 9.65074 550.271 6.21712C550.271 2.7835 547.487 0 544.054 0C540.62 0 537.836 2.7835 537.836 6.21712C537.836 9.65074 540.62 12.4342 544.054 12.4342Z" fill="white" fill-opacity="0.2"/>
</g>
</g>
</g>
<path d="M471.309 390.379H449.745V412.722H474.958V394.015C474.958 392.012 473.319 390.379 471.309 390.379Z" fill="#CED3E6"/>
<path d="M409.242 342.5H334.393V390.38H409.242V342.5Z" fill="#CED3E6"/>
<path d="M466.475 412.722H259.983V404.427C259.983 396.671 266.297 390.379 274.081 390.379H452.368C460.152 390.379 466.466 396.671 466.466 404.427V412.722H466.475Z" fill="white"/>
<path d="M400.078 342.5H325.229V390.38H400.078V342.5Z" fill="white"/>
<path d="M325.226 357.201L400.067 351.227L400.085 342.5H325.323L325.226 357.201Z" fill="#CED3E6"/>
<path d="M532.92 144.788V332.556C532.92 338.062 528.439 342.518 522.922 342.518H203.332C197.806 342.518 193.333 338.053 193.333 332.556V144.788C193.333 139.282 197.815 134.826 203.332 134.826H522.922C528.439 134.817 532.92 139.282 532.92 144.788Z" fill="#CED3E6"/>
<path d="M532.921 144.789V318.668H502.005V134.818H522.923C528.44 134.818 532.921 139.283 532.921 144.789Z" fill="#585859"/>
<path d="M520.203 144.788V332.556C520.203 338.062 515.722 342.518 510.205 342.518H203.332C197.806 342.518 193.333 338.053 193.333 332.556V144.788C193.333 139.282 197.815 134.826 203.332 134.826H510.205C510.356 134.826 510.506 134.826 510.648 134.835C510.754 134.844 510.86 134.844 510.976 134.852H510.984C511.064 134.861 511.135 134.861 511.215 134.879C511.348 134.888 511.472 134.905 511.604 134.923C511.693 134.932 511.773 134.949 511.852 134.958C511.897 134.967 511.932 134.967 511.976 134.976C512.056 134.985 512.136 135.002 512.224 135.02C516.776 135.955 520.203 139.97 520.203 144.788Z" fill="white"/>
<path d="M512.215 135.02C512.136 135.002 512.056 134.984 511.967 134.975C511.932 134.967 511.888 134.958 511.844 134.958C511.755 134.94 511.675 134.931 511.596 134.923C511.463 134.905 511.339 134.887 511.206 134.878C511.126 134.87 511.055 134.861 510.976 134.852H510.967C510.86 134.843 510.754 134.834 510.639 134.834C510.489 134.825 510.347 134.825 510.196 134.825H203.332C197.806 134.825 193.333 139.29 193.333 144.788V318.666H520.203V144.788C520.203 139.97 516.776 135.955 512.215 135.02ZM507.238 301.292C507.238 302.792 506.025 304.001 504.52 304.001H209.017C207.512 304.001 206.298 302.792 206.298 301.292V150.444C206.298 148.944 207.512 147.735 209.017 147.735H504.52C506.025 147.735 507.238 148.944 507.238 150.444V301.292Z" fill="#39393B"/>
<path d="M507.24 150.445V301.293C507.24 302.793 506.026 304.002 504.521 304.002H209.019C207.513 304.002 206.3 302.793 206.3 301.293V150.445C206.3 148.945 207.513 147.736 209.019 147.736H504.521C506.018 147.736 507.24 148.954 507.24 150.445Z" fill="#CED3E6"/>
<path d="M507.24 150.445V164.678H206.291V150.445C206.291 148.945 207.504 147.736 209.01 147.736H504.512C506.018 147.736 507.24 148.954 507.24 150.445Z" fill="white"/>
<path d="M483.931 155.987C483.931 157.257 482.895 158.29 481.62 158.29C480.345 158.29 479.309 157.257 479.309 155.987C479.309 154.716 480.345 153.684 481.62 153.684C482.895 153.684 483.931 154.716 483.931 155.987Z" fill="#DF615C"/>
<path d="M489.103 158.29C490.38 158.29 491.415 157.259 491.415 155.987C491.415 154.715 490.38 153.684 489.103 153.684C487.827 153.684 486.792 154.715 486.792 155.987C486.792 157.259 487.827 158.29 489.103 158.29Z" fill="#5392F3"/>
<path d="M469.835 158.421H234.729C233.542 158.421 232.577 157.451 232.577 156.277V155.695C232.577 154.512 233.551 153.551 234.729 153.551H469.826C471.012 153.551 471.978 154.521 471.978 155.695V156.268C471.987 157.451 471.012 158.421 469.835 158.421Z" fill="#D2DCEC"/>
<path d="M217.158 155.986V158.245C217.158 158.563 216.812 158.766 216.538 158.607L214.581 157.478L212.623 156.348C212.349 156.189 212.349 155.792 212.623 155.633L214.581 154.504L216.538 153.374C216.812 153.216 217.158 153.418 217.158 153.736V155.986Z" fill="black"/>
<path d="M220.604 155.986V158.245C220.604 158.563 220.949 158.766 221.223 158.607L223.181 157.478L225.138 156.348C225.412 156.189 225.412 155.792 225.138 155.633L223.181 154.504L221.223 153.374C220.949 153.216 220.604 153.418 220.604 153.736V155.986Z" fill="black"/>
<path d="M494.531 157.911L494.425 157.806C494.194 157.576 494.194 157.214 494.425 156.985L497.524 153.896C497.754 153.667 498.118 153.667 498.348 153.896L498.454 154.002C498.684 154.232 498.684 154.594 498.454 154.823L495.355 157.911C495.124 158.132 494.761 158.132 494.531 157.911Z" fill="#39393B"/>
<path d="M498.348 157.911L498.454 157.806C498.684 157.576 498.684 157.214 498.454 156.985L495.355 153.896C495.124 153.667 494.761 153.667 494.531 153.896L494.425 154.002C494.194 154.232 494.194 154.594 494.425 154.823L497.524 157.911C497.754 158.132 498.126 158.132 498.348 157.911Z" fill="#39393B"/>
<path d="M466.725 297.94H246.001C242.858 297.94 240.316 295.398 240.316 292.275V173.785C240.316 170.652 242.866 168.12 246.001 168.12H466.725C469.869 168.12 472.41 170.661 472.41 173.785V292.266C472.41 295.398 469.869 297.94 466.725 297.94Z" fill="white"/>
<path d="M307.497 234.538H256.611C255.832 234.538 255.194 233.912 255.194 233.126C255.194 232.35 255.823 231.715 256.611 231.715H307.497C308.276 231.715 308.914 232.341 308.914 233.126C308.905 233.912 308.276 234.538 307.497 234.538Z" fill="#CED3E6"/>
<path d="M307.497 222.626H256.611C255.832 222.626 255.194 222 255.194 221.214C255.194 220.438 255.823 219.802 256.611 219.802H307.497C308.276 219.802 308.914 220.429 308.914 221.214C308.905 221.991 308.276 222.626 307.497 222.626Z" fill="#CED3E6"/>
<path d="M307.497 246.46H256.611C255.832 246.46 255.194 245.833 255.194 245.048C255.194 244.272 255.823 243.636 256.611 243.636H307.497C308.276 243.636 308.914 244.263 308.914 245.048C308.905 245.833 308.276 246.46 307.497 246.46Z" fill="#CED3E6"/>
<path d="M463.855 234.538H412.969C412.19 234.538 411.552 233.912 411.552 233.126C411.552 232.35 412.181 231.715 412.969 231.715H463.855C464.634 231.715 465.272 232.341 465.272 233.126C465.272 233.912 464.634 234.538 463.855 234.538Z" fill="#CED3E6"/>
<path d="M463.855 222.627H412.969C412.19 222.627 411.552 222 411.552 221.215C411.552 220.438 412.181 219.803 412.969 219.803H463.855C464.634 219.803 465.272 220.429 465.272 221.215C465.272 221.991 464.634 222.627 463.855 222.627Z" fill="#CED3E6"/>
<path d="M463.855 246.46H412.969C412.19 246.46 411.552 245.833 411.552 245.048C411.552 244.272 412.181 243.636 412.969 243.636H463.855C464.634 243.636 465.272 244.263 465.272 245.048C465.272 245.833 464.634 246.46 463.855 246.46Z" fill="#CED3E6"/>
<path d="M240.316 277.776H472.419V296.739C472.419 297.4 471.879 297.939 471.215 297.939H241.52C240.856 297.939 240.316 297.4 240.316 296.739V277.776Z" fill="#39393B"/>
<path d="M449.615 285.251V283.539H451.758V282.021H448.844C448.419 282.021 448.083 282.365 448.083 282.78V285.251H449.615Z" fill="white"/>
<path d="M449.615 288.295H448.092V290.898C448.092 291.322 448.437 291.657 448.853 291.657H451.767V290.139H449.624V288.295H449.615Z" fill="white"/>
<path d="M456.231 285.251H457.754V282.78C457.754 282.357 457.409 282.021 456.992 282.021H454.194V283.539H456.231V285.251Z" fill="white"/>
<path d="M456.231 288.295V290.13H454.194V291.648H456.992C457.417 291.648 457.754 291.304 457.754 290.889V288.286H456.231V288.295Z" fill="white"/>
<path d="M253.831 287.165V282.355L258.011 284.764L262.182 287.165L258.011 289.565L253.831 291.965V287.165Z" fill="white"/>
<path d="M276.977 291.587H275.879C275.472 291.587 275.135 291.252 275.135 290.846V283.584C275.135 283.178 275.472 282.843 275.879 282.843H276.977C277.385 282.843 277.721 283.178 277.721 283.584V290.846C277.721 291.252 277.385 291.587 276.977 291.587Z" fill="white"/>
<path d="M282.382 291.587H281.284C280.877 291.587 280.54 291.252 280.54 290.846V283.584C280.54 283.178 280.877 282.843 281.284 282.843H282.382C282.789 282.843 283.126 283.178 283.126 283.584V290.846C283.126 291.252 282.789 291.587 282.382 291.587Z" fill="white"/>
<path d="M472.42 273.982H240.316V277.776H472.42V273.982Z" fill="#CED3E6"/>
<path d="M359.41 273.991H240.316V277.785H359.41V273.991Z" fill="#DF615C"/>
<path d="M284.548 150.628C284.548 150.628 283.148 159.152 276.843 160.678C271.751 161.905 266.96 157.043 265.304 155.119C264.905 154.66 264.693 154.369 264.693 154.369C264.693 154.369 264.312 154.404 263.745 154.396C262.417 154.378 260.061 154.104 259.14 152.481C257.821 150.169 262.612 148.58 262.612 148.58C262.612 148.58 260.159 146.392 260.77 144.804C261.372 143.242 264.666 142.915 264.666 142.915C264.666 142.915 261.115 140.621 262.31 138.618C264.099 135.609 267.766 138.918 268.058 139.103C267.828 138.839 263.231 134.1 265.747 133.253C267.943 132.512 271.547 134.974 273.929 137.409C274.31 137.797 274.523 138.018 274.523 138.018C274.523 138.018 274.664 137.912 274.912 137.744C276.099 136.95 279.748 134.833 282.068 136.765C284.858 139.112 284.548 150.628 284.548 150.628Z" fill="#EA9B7A"/>
<path d="M277.968 155.862C277.809 155.933 277.623 155.933 277.472 155.827C277.242 155.677 277.18 155.368 277.34 155.139C278.172 153.912 278.429 152.65 278.101 151.406C277.269 148.212 272.983 146.006 272.938 145.979C272.69 145.856 272.593 145.556 272.717 145.309C272.841 145.062 273.142 144.964 273.39 145.088C273.585 145.185 278.119 147.523 279.066 151.15C279.465 152.686 279.164 154.212 278.163 155.686C278.119 155.765 278.048 155.827 277.968 155.862Z" fill="#D96C63"/>
<path d="M273.592 143.569C273.592 144.161 273.344 144.628 272.884 144.928C272.787 144.99 272.68 145.043 272.556 145.096C272.3 145.193 271.99 145.264 271.653 145.299C271.901 145.458 272.122 145.634 272.291 145.82C272.468 146.005 272.601 146.199 272.68 146.402C272.787 146.702 272.831 147.152 272.459 147.655C271.653 148.714 269.802 149.146 268.297 149.323C269.377 149.958 270.316 150.823 270.626 151.688C270.821 152.244 270.759 152.773 270.431 153.205C270.201 153.505 269.82 153.77 269.35 154C268.173 154.573 266.446 154.926 265.294 155.12C264.896 154.661 264.683 154.37 264.683 154.37C264.683 154.37 264.303 154.414 263.736 154.405C263.807 154.344 263.895 154.308 263.993 154.3C265.844 154.088 269.014 153.435 269.634 152.614C269.714 152.499 269.793 152.341 269.687 152.023C269.342 151.07 267.544 149.808 265.994 149.429C265.746 149.367 265.587 149.137 265.622 148.882C265.649 148.626 265.87 148.44 266.127 148.449C267.367 148.476 270.767 148.264 271.671 147.055C271.804 146.879 271.768 146.781 271.75 146.737C271.671 146.508 271.387 146.278 270.998 146.049C270.201 145.581 268.943 145.158 268.04 144.937C267.934 144.911 267.845 144.858 267.783 144.778C267.677 144.664 267.632 144.496 267.668 144.337C267.73 144.072 268.004 143.905 268.27 143.967C268.438 144.011 268.801 144.099 269.244 144.24C270.086 144.337 270.891 144.381 271.502 144.32C271.866 144.284 272.158 144.205 272.353 144.09C272.468 144.02 272.601 143.887 272.601 143.561C272.609 143.146 272.397 142.608 272.06 142.052C271.954 141.875 271.972 141.655 272.105 141.496L272.114 141.487C272.326 141.213 272.742 141.24 272.919 141.54C273.336 142.228 273.601 142.952 273.592 143.569Z" fill="#D96C63"/>
<path d="M269.925 134.241C270.784 134.771 271.537 135.265 272.272 135.953C272.98 136.624 273.432 136.968 273.919 137.418C273.884 137.471 273.955 137.365 273.919 137.418L264.302 96.7743C264.16 96.1478 263.221 96.3419 263.336 96.9684L269.925 134.241C269.934 134.241 269.925 134.241 269.925 134.241Z" fill="#39393B"/>
<path d="M278.287 156.812C274.957 158.957 274.018 157.368 274.018 157.368L272.327 147.821C272.38 147.768 272.424 147.715 272.468 147.653C272.84 147.15 272.796 146.691 272.69 146.4C272.61 146.188 272.477 145.994 272.3 145.818C272.185 145.694 272.052 145.588 271.91 145.473L271.875 145.262C272.123 145.218 272.362 145.165 272.557 145.085C272.681 145.032 272.787 144.988 272.885 144.917C273.186 144.723 273.398 144.441 273.504 144.115C273.912 144.503 274.408 144.723 275.001 144.785C275.161 144.803 275.32 144.803 275.488 144.803L278.287 156.812Z" fill="#39393B"/>
<path d="M281.185 141.91C281.087 141.998 279.617 143.278 277.899 144.107C276.951 144.566 275.915 144.892 275.003 144.795C274.25 144.716 273.639 144.372 273.197 143.781C271.611 141.663 272.966 138.892 273.923 137.427C274.304 137.816 274.516 138.036 274.516 138.036C274.516 138.036 274.658 137.93 274.906 137.763C274.091 138.971 272.718 141.469 274.002 143.189C274.277 143.56 274.64 143.763 275.109 143.816C276.872 144.001 279.617 141.972 280.52 141.177C280.724 140.992 281.043 141.01 281.229 141.222C281.415 141.407 281.388 141.725 281.185 141.91Z" fill="#D96C63"/>
<path d="M332.654 132.052V132.034C332.654 132.016 332.654 132.034 332.654 132.034L332.645 132.087L332.618 132.21L332.556 132.502L332.423 133.146C332.379 133.366 332.326 133.596 332.282 133.825C332.229 134.055 332.184 134.284 332.122 134.514C331.91 135.44 331.679 136.384 331.423 137.328C330.9 139.217 330.351 141.114 329.713 142.976C329.067 144.838 328.403 146.7 327.65 148.509C327.26 149.409 326.888 150.317 326.472 151.2C326.083 152.1 325.649 152.973 325.232 153.847C324.356 155.585 323.444 157.297 322.452 158.939C322.221 159.362 321.956 159.759 321.699 160.174C321.442 160.58 321.203 160.995 320.928 161.392C320.397 162.186 319.883 162.989 319.317 163.757C318.236 165.327 317.041 166.792 315.854 168.248C314.623 169.669 313.366 171.063 312.028 172.36C311.692 172.686 311.364 173.022 311.028 173.339L309.991 174.275L309.478 174.742L309.345 174.857L309.407 174.795L309.496 174.716C309.62 174.619 309.743 174.531 309.885 174.442C310.434 174.054 311.116 173.754 311.745 173.578C311.904 173.534 312.037 173.489 312.188 173.472C312.259 173.454 312.338 173.445 312.409 173.437L312.595 173.401C312.719 173.384 312.852 173.375 312.967 173.375C313.064 173.366 313.162 173.357 313.259 173.366C313.304 173.366 313.366 173.375 313.392 173.375C313.428 173.375 313.463 173.375 313.498 173.375C313.56 173.375 313.64 173.392 313.693 173.401C313.737 173.401 313.773 173.41 313.817 173.419L313.87 173.437C313.879 173.437 313.888 173.437 313.897 173.437C314.039 173.481 313.755 173.437 313.321 173.251C312.878 173.066 312.294 172.757 311.656 172.386C311.019 172.007 310.319 171.548 309.611 171.045C308.185 170.039 306.688 168.839 305.2 167.56C303.704 166.271 302.198 164.904 300.702 163.474C299.205 162.053 297.708 160.571 296.238 159.062C294.759 157.553 293.28 156.009 291.837 154.447C291.102 153.671 290.376 152.885 289.667 152.1L287.577 149.823L271.442 161.886L271.982 162.698L272.496 163.448L273.514 164.921C274.205 165.892 274.896 166.854 275.595 167.807C277.012 169.704 278.465 171.583 279.97 173.437C281.493 175.281 283.043 177.116 284.681 178.916C285.505 179.816 286.337 180.716 287.196 181.599C288.055 182.49 288.941 183.372 289.853 184.246C291.686 186.002 293.617 187.723 295.796 189.417C296.885 190.264 298.045 191.094 299.302 191.914C300.569 192.735 301.941 193.538 303.553 194.297C305.165 195.047 307.007 195.779 309.363 196.273L309.797 196.361C309.947 196.388 310.115 196.414 310.275 196.441C310.594 196.485 310.912 196.529 311.231 196.573C311.559 196.609 311.922 196.635 312.267 196.653L312.79 196.679C312.967 196.688 313.162 196.688 313.348 196.688C313.729 196.688 314.109 196.679 314.481 196.661C314.88 196.635 315.287 196.591 315.695 196.538C315.898 196.511 316.093 196.485 316.306 196.459C316.518 196.423 316.731 196.379 316.943 196.335C317.368 196.247 317.785 196.159 318.21 196.035C319.928 195.55 321.628 194.756 323.125 193.75C323.488 193.502 323.833 193.238 324.179 192.964L324.435 192.761L324.666 192.567L324.852 192.399L325.595 191.746L327.074 190.432C327.553 189.982 328.022 189.523 328.5 189.064C330.404 187.246 332.158 185.287 333.867 183.302C335.532 181.281 337.135 179.225 338.587 177.081C340.075 174.954 341.412 172.739 342.687 170.507L343.608 168.813C343.918 168.248 344.193 167.674 344.485 167.101C344.777 166.527 345.061 165.963 345.335 165.38L346.15 163.651C348.258 159.009 349.958 154.235 351.277 149.373C351.924 146.938 352.508 144.485 352.951 141.988C353.173 140.735 353.385 139.481 353.553 138.193C353.598 137.876 353.633 137.549 353.677 137.223C353.713 136.896 353.757 136.57 353.793 136.234C353.828 135.908 353.863 135.555 353.89 135.211L353.987 133.984L332.654 132.052Z" fill="#FAAF3A"/>
<path d="M281.981 159.442C282.043 160.201 282.716 160.774 283.487 160.704C284.248 160.642 284.824 159.971 284.753 159.204C284.691 158.445 284.018 157.871 283.248 157.942C282.486 158.004 281.919 158.674 281.981 159.442Z" fill="#C77E2E"/>
<path d="M310.91 183.266C311.176 183.266 311.415 183.09 311.486 182.816C312.602 178.369 312.46 172.783 312.451 172.545C312.442 172.218 312.168 171.962 311.84 171.971C311.513 171.98 311.256 172.254 311.265 172.58C311.265 172.633 311.406 178.236 310.335 182.525C310.255 182.842 310.45 183.16 310.769 183.24C310.813 183.257 310.866 183.266 310.91 183.266Z" fill="#C77E2E"/>
<path d="M314.722 178.977C314.81 178.977 314.899 178.96 314.988 178.916C315.28 178.766 315.404 178.413 315.253 178.122C315.174 177.963 313.252 174.133 312.34 172.986C312.136 172.73 311.764 172.686 311.507 172.889C311.25 173.092 311.206 173.462 311.41 173.718C312.242 174.76 314.173 178.607 314.191 178.642C314.288 178.854 314.5 178.977 314.722 178.977Z" fill="#C77E2E"/>
<path d="M277.701 170.949C277.861 170.949 278.011 170.887 278.126 170.772C283.103 165.654 294.341 157.58 294.457 157.492C294.722 157.298 294.784 156.927 294.589 156.663C294.395 156.398 294.023 156.336 293.757 156.53C293.642 156.61 282.324 164.754 277.276 169.943C277.046 170.181 277.055 170.552 277.285 170.781C277.409 170.887 277.551 170.949 277.701 170.949Z" fill="#C77E2E"/>
<path d="M282.514 166.571C282.646 166.571 282.779 166.527 282.894 166.43C283.142 166.218 283.178 165.847 282.974 165.592L276.97 158.409C276.757 158.162 276.385 158.126 276.128 158.329C275.881 158.541 275.845 158.912 276.049 159.168L282.053 166.35C282.177 166.5 282.345 166.571 282.514 166.571Z" fill="#C77E2E"/>
<path d="M347.341 306.364L355.4 258.996L356.064 255.122L332.871 246.969L331.551 246.501L326.025 244.56C326.025 244.56 325.582 246.589 324.9 250.066C324.821 250.49 324.732 250.931 324.643 251.39C322.465 262.596 318.391 285.68 317.275 306.355H347.341V306.364Z" fill="#39393B"/>
<path d="M343.237 306.363C346.718 287.48 351.199 259.878 351.464 258.263C351.517 257.919 351.287 257.601 350.942 257.548C350.605 257.495 350.278 257.725 350.224 258.069C350.162 258.466 345.513 287.118 341.962 306.363H343.237Z" fill="#585859"/>
<path d="M394.265 229.432C394.265 229.432 396.01 245.933 392.246 255.119C388.482 264.305 339.713 259.575 327.288 251.307C322.188 247.919 333.045 216.628 333.045 216.628L394.265 229.432Z" fill="#39393B"/>
<path d="M324.637 251.4C325.372 251.268 326.098 251.083 326.798 250.844C327.913 250.465 328.985 249.953 330.003 249.3C331.057 248.621 332.014 247.835 332.864 246.971C338.239 241.57 339.825 233.399 339.895 233.002C339.957 232.667 339.736 232.34 339.391 232.27C339.054 232.208 338.726 232.428 338.656 232.773C338.638 232.87 336.991 241.367 331.535 246.503C330.854 247.147 330.11 247.738 329.313 248.25C328.347 248.868 327.32 249.353 326.248 249.706C325.806 249.847 325.345 249.971 324.885 250.068C324.814 250.491 324.725 250.933 324.637 251.4Z" fill="#585859"/>
<path d="M354.728 256.014C354.711 256.34 354.976 256.623 355.322 256.649C355.322 256.649 355.322 256.649 355.331 256.649C355.676 256.667 355.968 256.411 355.986 256.076C356.092 253.817 356.234 251.514 356.376 249.202C356.402 248.796 356.429 248.39 356.455 247.984C356.951 240.448 357.571 233.045 358.04 227.812C358.076 227.389 358.111 226.983 358.156 226.586C358.262 225.438 358.359 224.424 358.439 223.559C358.023 223.497 357.607 223.427 357.199 223.356C357.119 224.221 357.022 225.244 356.916 226.4C356.88 226.797 356.845 227.203 356.801 227.627C356.331 232.807 355.711 240.148 355.224 247.64C355.198 248.055 355.171 248.469 355.145 248.884C354.976 251.275 354.835 253.675 354.728 256.014Z" fill="#585859"/>
<path d="M352.94 248.05C353.135 248.147 354.012 248.553 355.127 248.888C355.517 249.003 355.933 249.118 356.367 249.197C356.757 249.276 357.155 249.329 357.554 249.347C358.316 249.391 359.042 249.312 359.653 249.021C360.414 248.659 360.91 247.997 361.079 247.115C361.53 244.785 362.487 235.184 363.133 228.39C363.177 227.975 363.213 227.56 363.248 227.172C363.355 226.087 363.443 225.098 363.523 224.26C363.107 224.207 362.69 224.163 362.274 224.101C362.194 224.948 362.106 225.946 362 227.049C361.964 227.446 361.92 227.852 361.885 228.266C361.238 235.043 360.29 244.635 359.848 246.885C359.75 247.406 359.511 247.741 359.095 247.935C358.431 248.253 357.439 248.182 356.447 247.97C356.022 247.882 355.606 247.759 355.216 247.635C354.499 247.406 353.879 247.141 353.498 246.965C353.188 246.814 352.816 246.938 352.657 247.238C352.506 247.538 352.63 247.9 352.94 248.05Z" fill="#585859"/>
<path d="M388.197 306.362C390.128 288.785 392.359 265.251 393.617 251.627C393.661 251.203 393.697 250.788 393.732 250.382C394.29 244.364 394.627 240.579 394.627 240.579C391.633 239.335 386.205 240.191 380.431 241.823C380.014 241.938 379.598 242.061 379.173 242.185C368.918 245.247 358.043 250.418 358.043 250.418V306.362H388.197Z" fill="#39393B"/>
<path d="M385.261 306.36C386.926 286.815 388.901 258.578 388.927 258.207C388.954 257.863 388.688 257.563 388.343 257.537C387.997 257.519 387.696 257.775 387.679 258.119C387.652 258.49 385.668 286.833 384.003 306.36H385.261Z" fill="#585859"/>
<path d="M375.728 233C375.781 233.291 376.64 237.712 379.181 242.186C380.678 244.824 382.768 247.471 385.62 249.298C388.02 250.833 390.694 251.61 393.616 251.628C393.661 251.204 393.696 250.789 393.732 250.383C391.004 250.383 388.516 249.669 386.302 248.257C383.751 246.624 381.847 244.242 380.439 241.833C377.844 237.386 376.967 232.85 376.959 232.779C376.897 232.444 376.569 232.215 376.232 232.276C375.887 232.338 375.666 232.656 375.728 233Z" fill="#585859"/>
<path d="M325.582 228.393C339.078 240.95 371.004 247.621 395.605 235.682C398.306 228.331 401.273 202.106 402.07 194.262C402.229 192.7 402.353 191.138 402.46 189.576C402.956 182.058 402.849 174.478 402.486 166.554C402.469 166.122 402.442 165.689 402.424 165.257C402.106 158.736 401.618 151.977 401.167 144.794C400.272 130.578 395.508 121.825 387.237 120.519C383.393 119.91 380.347 118.833 378.106 117.774C377.832 117.642 377.575 117.519 377.318 117.386C374.652 116.027 373.138 114.81 373.138 114.81H354.691C353.106 117.113 351.105 118.569 348.953 119.592C348.714 119.707 348.474 119.813 348.226 119.919C341.682 122.734 334.048 122.178 332.472 130.04C331.48 134.981 335.279 145.138 334.881 165.742C334.854 167.251 334.801 168.822 334.721 170.445C334.65 171.972 334.553 173.543 334.429 175.166C334.314 176.675 334.181 178.246 334.022 179.852C333.88 181.255 333.721 182.702 333.543 184.176C333.357 185.693 333.154 187.246 332.924 188.844C331.701 197.429 328.407 217.381 325.582 228.393Z" fill="#FAAF3A"/>
<path d="M388.803 232.691C388.759 232.691 388.706 232.682 388.652 232.673C388.36 232.593 388.183 232.293 388.263 231.993C398.509 194.562 396.437 156.521 396.419 156.142C396.401 155.842 396.632 155.577 396.941 155.559C397.251 155.542 397.508 155.771 397.526 156.08C397.544 156.459 399.625 194.685 389.334 232.293C389.263 232.523 389.042 232.691 388.803 232.691Z" fill="#C77E2E"/>
<path d="M333.203 184.079C333.504 184.079 333.761 183.858 333.796 183.55C335.018 172.722 335.036 151.192 335.036 150.971C335.036 150.645 334.77 150.38 334.443 150.38C334.115 150.38 333.849 150.645 333.849 150.971C333.849 151.183 333.832 172.661 332.618 183.417C332.583 183.744 332.813 184.035 333.141 184.07C333.159 184.07 333.185 184.079 333.203 184.079Z" fill="#C77E2E"/>
<path d="M358.479 224.847C358.541 225.606 359.214 226.18 359.985 226.109C360.746 226.047 361.322 225.377 361.251 224.609C361.189 223.85 360.516 223.277 359.745 223.347C358.975 223.409 358.408 224.088 358.479 224.847Z" fill="#C77E2E"/>
<path d="M358.259 231.553C358.321 232.312 358.994 232.885 359.764 232.814C360.526 232.753 361.102 232.082 361.031 231.314C360.96 230.547 360.296 229.982 359.525 230.053C358.755 230.114 358.188 230.785 358.259 231.553Z" fill="#C77E2E"/>
<path d="M342.016 157.799C338.394 153.607 339.749 144.28 339.811 143.883C339.855 143.592 340.103 143.38 340.395 143.38H352.678C352.97 143.38 353.218 143.592 353.263 143.883C353.325 144.28 354.679 153.607 351.057 157.799C349.906 159.131 348.383 159.802 346.532 159.802C344.69 159.811 343.167 159.131 342.016 157.799ZM340.917 144.571C340.687 146.539 340.085 153.766 342.91 157.031C343.84 158.108 345.027 158.628 346.532 158.628C348.046 158.628 349.233 158.108 350.154 157.031C352.979 153.766 352.377 146.539 352.147 144.571H340.917Z" fill="#C77E2E"/>
<path d="M374.809 69.5083C371.373 67.2935 360.542 66.1816 360.542 66.1816C360.542 66.1816 358.762 61.5225 356.752 60.1901C352.191 57.1634 351.625 63.2962 351.625 63.2962C351.625 63.2962 347.17 57.0752 343.158 58.8577C339.147 60.6313 344.274 66.4111 344.274 66.4111C344.274 66.4111 338.261 65.2992 338.925 70.4084C339.589 75.5175 345.39 77.7324 345.39 77.7324C345.39 77.7324 343.61 80.6178 344.496 85.2858C345.39 89.9449 347.391 90.1743 347.391 90.1743L372.356 92.398C372.356 92.398 377.484 92.398 378.821 85.9564C380.158 79.5148 375.704 76.85 375.704 76.85C375.704 76.85 378.6 71.9526 374.809 69.5083Z" fill="#39393B"/>
<path d="M354.415 111.693V116.361C354.964 116.802 355.522 117.191 356.071 117.517C364.209 122.388 372.994 116.361 372.994 116.361V100.169L356.637 110.325L354.415 111.693Z" fill="#EA9B7A"/>
<path d="M354.415 111.563V116.372C354.964 116.813 355.522 117.201 356.071 117.528C363.005 114.792 368.053 107.548 368.053 107.548L356.629 110.327L354.415 111.563Z" fill="#39393B"/>
<path d="M372.959 111.625C372.959 111.625 378.44 112.543 379.946 118.79C374.606 124.358 369.886 129.176 362.252 130.588V119.408C362.252 119.408 368.991 117.731 372.959 111.625Z" fill="#FAAF3A"/>
<path d="M354.246 113.24C354.246 113.24 349.348 114.29 347.453 120.529C352.386 126.512 355.025 128.762 362.251 130.588V119.408C362.251 119.408 358.222 119.346 354.246 113.24Z" fill="#FAAF3A"/>
<path d="M351.489 200.113L354.659 207.746L356.085 211.178L360.106 220.858L362.054 217.126L362.736 215.793L364.303 212.802L364.985 211.469L366.544 208.478L367.235 207.154L368.793 204.154V204.145L369.484 202.831L370.945 200.007L370.919 199.698L370.688 197.466L370.166 192.392L369.944 190.159L369.422 185.085L369.192 182.853L368.678 177.779L368.448 175.547L367.925 170.473L367.704 168.231L367.181 163.166L366.951 160.925L366.437 155.86L366.207 153.619L365.694 148.554L365.463 146.312L364.941 141.247L364.711 139.006L364.179 133.765L360.291 133.615L360.176 134.488L359.946 136.262L359.415 140.286L359.176 142.059L358.644 146.083L358.405 147.857L357.874 151.88L357.635 153.654L357.103 157.678L356.873 159.451L356.342 163.475L356.103 165.249L355.571 169.273L355.332 171.046L354.801 175.07L354.571 176.852L354.03 180.876L353.8 182.65L353.269 186.665L353.03 188.447L352.498 192.471L352.259 194.245L351.728 198.269L351.498 200.042L351.489 200.113Z" fill="#39393B"/>
<path d="M359.945 136.262L364.94 141.248L364.71 139.006L360.176 134.489L359.945 136.262Z" fill="#585859"/>
<path d="M359.181 142.058L365.699 148.553L365.469 146.311L359.42 140.284L359.181 142.058Z" fill="#585859"/>
<path d="M358.409 147.856L366.441 155.859L366.211 153.618L358.648 146.082L358.409 147.856Z" fill="#585859"/>
<path d="M357.637 153.654L367.183 163.167L366.953 160.926L357.876 151.881L357.637 153.654Z" fill="#585859"/>
<path d="M356.875 159.451L367.928 170.472L367.706 168.231L357.106 157.677L356.875 159.451Z" fill="#585859"/>
<path d="M356.105 165.249L368.68 177.779L368.45 175.546L356.344 163.475L356.105 165.249Z" fill="#585859"/>
<path d="M355.334 171.047L369.424 185.086L369.194 182.853L355.574 169.273L355.334 171.047Z" fill="#585859"/>
<path d="M354.568 176.853L370.163 192.392L369.942 190.159L354.798 175.07L354.568 176.853Z" fill="#585859"/>
<path d="M353.804 182.65L370.922 199.698L370.692 197.466L354.034 180.876L353.804 182.65Z" fill="#585859"/>
<path d="M353.033 188.448L368.797 204.146L369.487 202.831L353.272 186.665L353.033 188.448Z" fill="#585859"/>
<path d="M352.258 194.246L366.543 208.479L367.234 207.155L352.497 192.472L352.258 194.246Z" fill="#585859"/>
<path d="M351.498 200.042L364.304 212.802L364.986 211.469L351.728 198.268L351.498 200.042Z" fill="#585859"/>
<path d="M354.662 207.745L356.088 211.177L362.057 217.125L362.739 215.792L354.662 207.745Z" fill="#585859"/>
<path d="M364.181 133.764L362.251 136.632L360.294 133.614L359.957 136.191L362.215 138.494L364.385 135.767L364.181 133.764Z" fill="#585859"/>
<path d="M367.431 128.956L362.25 136.633L357.282 128.956L362.25 122.541L367.431 128.956Z" fill="#39393B"/>
<path d="M370.446 134.205C370.579 134.205 370.711 134.161 370.818 134.073C375.954 129.996 380.32 119.452 380.506 119.001C380.63 118.701 380.488 118.349 380.178 118.225C379.877 118.101 379.523 118.243 379.399 118.551C379.355 118.657 375.237 128.584 370.543 132.741L362.732 122.169C362.617 122.019 362.44 121.922 362.245 121.931C362.05 121.931 361.873 122.028 361.767 122.178L354.479 132.485C353.363 130.482 350.44 125.17 347.987 120.246C347.846 119.954 347.483 119.831 347.19 119.981C346.898 120.122 346.774 120.484 346.925 120.775C350.024 126.996 353.868 133.826 353.903 133.897C354 134.073 354.186 134.188 354.39 134.197C354.594 134.205 354.789 134.108 354.904 133.949L362.263 123.546L369.959 133.958C370.056 134.091 370.198 134.17 370.357 134.197C370.402 134.205 370.428 134.205 370.446 134.205Z" fill="#C77E2E"/>
<path d="M362.263 123.131C362.591 123.131 362.857 122.866 362.857 122.539V119.892C362.857 119.566 362.591 119.301 362.263 119.301C361.936 119.301 361.67 119.566 361.67 119.892V122.539C361.67 122.866 361.936 123.131 362.263 123.131Z" fill="#C77E2E"/>
<path d="M348.568 90.994C348.568 90.994 345.902 87.8615 344.397 90.994C342.891 94.1266 344.052 100.471 348.099 99.4387L348.568 90.994Z" fill="#D96C63"/>
<path d="M345.717 101.989C345.717 101.989 345.699 111.652 355.786 111.625C365.811 111.608 372.639 103.763 372.993 103.401C373.002 103.392 373.002 103.392 373.002 103.392L373.108 101.363L373.675 90.8269L373.976 85.1971C373.976 85.1971 375.26 75.0583 365.58 73.2052C358.514 71.8551 351.889 73.0199 348.542 76.6995C348.436 76.8143 348.329 76.9378 348.232 77.0613C347.178 78.3496 346.505 79.9292 346.328 81.7822L346.018 91.8946L345.938 94.3742L345.717 101.989Z" fill="#EA9B7A"/>
<path d="M357.291 84.6406C357.291 84.6406 361.525 87.782 364.04 85.7789C366.555 83.7759 360.692 81.5963 358.761 81.764C356.84 81.9228 356.034 83.9259 357.291 84.6406Z" fill="#39393B"/>
<path d="M352.688 84.6406C352.688 84.6406 348.455 87.782 345.94 85.7789C343.425 83.7759 349.288 81.5963 351.218 81.764C353.149 81.9228 353.946 83.9259 352.688 84.6406Z" fill="#39393B"/>
<path d="M356.027 103.252C357.639 103.393 358.852 102.387 358.914 102.334C359.1 102.175 359.118 101.893 358.958 101.707C358.799 101.522 358.515 101.504 358.329 101.663C358.267 101.716 356.868 102.872 355.23 102.14C355.009 102.043 354.743 102.14 354.645 102.369C354.548 102.59 354.645 102.854 354.876 102.952C355.265 103.128 355.655 103.216 356.027 103.252Z" fill="#D96C63"/>
<path d="M360.393 96.3511C360.393 96.3511 354.238 97.5864 351.129 97.3041C351.129 97.3041 352.289 101.866 356.868 100.719C360.437 99.8278 360.393 96.3511 360.393 96.3511Z" fill="white"/>
<path d="M348.251 77.0618C349.836 76.5059 350.979 77.0265 353.44 78.1031C357.001 79.6649 360.986 78.2619 364.51 76.4618C368.035 74.6705 370.143 77.1677 368.947 78.8002C367.752 80.4414 367.876 81.765 369.213 83.8475C370.541 85.93 366.698 86.9095 368.823 88.5419C369.718 89.2302 369.664 90.2626 369.301 91.2245C368.903 92.2745 369.833 93.3422 370.931 93.1393C372.082 92.8481 373.694 90.8274 373.694 90.8274L373.995 85.1976C373.995 85.1976 375.279 75.0588 365.6 73.2057C358.533 71.8556 351.908 73.0204 348.561 76.7C348.455 76.8147 348.348 76.9383 348.251 77.0618Z" fill="#39393B"/>
<path d="M359.172 93.1379C359.172 93.8438 360.625 94.4085 362.422 94.4085C364.211 94.4085 365.673 93.835 365.673 93.1379C365.673 92.4319 364.22 91.8672 362.422 91.8672C360.634 91.8672 359.172 92.4408 359.172 93.1379Z" fill="#D96C63"/>
<path d="M345.954 94.3732C346.202 94.3997 346.467 94.4085 346.733 94.4085C348.522 94.4085 349.974 93.835 349.974 93.1379C349.974 92.4319 348.522 91.8672 346.733 91.8672C346.494 91.8672 346.255 91.876 346.024 91.9025L345.954 94.3732Z" fill="#D96C63"/>
<path d="M357.781 89.2724C357.781 90.2342 358.224 91.0196 358.764 91.0196C359.304 91.0196 359.747 90.2342 359.747 89.2724C359.747 88.3106 359.304 87.5252 358.764 87.5252C358.215 87.5164 357.781 88.3017 357.781 89.2724Z" fill="#39393B"/>
<path d="M348.036 89.2721C348.036 90.234 348.479 91.0193 349.019 91.0193C349.559 91.0193 350.002 90.234 350.002 89.2721C350.002 88.3103 349.559 87.525 349.019 87.525C348.47 87.5162 348.036 88.3015 348.036 89.2721Z" fill="#39393B"/>
<path d="M369.84 99.4817C369.885 99.5876 371.16 102.535 372.993 103.4C373.002 103.391 373.002 103.391 373.002 103.391L373.108 101.361C373.108 101.361 371.523 101.088 369.84 99.4817Z" fill="#39393B"/>
<path d="M371.609 92.7743C371.609 92.7743 375.488 87.5857 378.322 91.6625C380.66 95.0244 376.241 103.778 371.609 100.778V92.7743Z" fill="#EA9B7A"/>
<path d="M372.14 99.2151C372.344 99.2151 372.512 99.0651 372.539 98.8621C372.973 94.9354 376.267 93.5677 376.409 93.5147C376.612 93.4353 376.71 93.2059 376.63 92.9941C376.55 92.7912 376.32 92.6941 376.116 92.7735C375.957 92.8353 372.229 94.3618 371.75 98.7739C371.724 98.9945 371.883 99.1886 372.105 99.2151C372.114 99.2151 372.122 99.2151 372.14 99.2151Z" fill="#39393B"/>
<path d="M375.86 96.8084C375.975 96.8084 376.091 96.7555 376.17 96.6584C376.312 96.4908 376.285 96.2349 376.108 96.1025C375.949 95.9702 374.523 94.8495 373.319 95.1583C373.106 95.2113 372.973 95.4319 373.035 95.6437C373.088 95.8554 373.31 95.9878 373.522 95.926C374.213 95.7496 375.258 96.4378 375.612 96.7202C375.683 96.7731 375.772 96.8084 375.86 96.8084Z" fill="#39393B"/>
<path d="M354.631 94.1382C354.853 94.1382 355.03 93.9617 355.03 93.7411C355.03 93.5205 354.853 93.3441 354.631 93.3441C353.161 93.3441 352.479 92.5675 352.249 92.241C353.843 88.9761 355.419 85.6759 355.437 85.6495C355.535 85.4553 355.446 85.2171 355.251 85.12C355.056 85.023 354.817 85.1112 354.72 85.3053C354.702 85.3406 353.064 88.7555 351.443 92.091C351.39 92.1969 351.39 92.3205 351.443 92.4352C351.47 92.4881 352.267 94.1382 354.631 94.1382Z" fill="#39393B"/>
<path d="M451.115 129.947C451.115 129.947 456.482 135.347 461.786 133.247C466.064 131.544 467.011 125.614 467.224 123.399C467.277 122.87 467.277 122.552 467.277 122.552C467.277 122.552 467.569 122.384 467.968 122.093C468.907 121.405 470.465 120.011 470.297 118.378C470.058 116.049 465.807 117.346 465.807 117.346C465.807 117.346 466.454 114.531 465.196 113.702C463.965 112.89 461.432 114.328 461.432 114.328C461.432 114.328 462.805 110.878 460.927 110.048C458.102 108.795 457.173 113.04 457.049 113.313C457.075 113.004 458.421 100.007 456.181 100.677C454.224 101.26 452.426 112.122 451.965 115.078C451.895 115.546 451.859 115.81 451.859 115.81C451.859 115.81 451.7 115.802 451.434 115.81C450.176 115.846 446.484 116.181 445.802 118.74C444.996 121.846 451.115 129.947 451.115 129.947Z" fill="#EA9B7A"/>
<path d="M462.105 120.765C461.653 121.771 461.423 122.866 461.644 123.642C461.786 124.145 462.105 124.489 462.565 124.63C462.884 124.727 463.291 124.727 463.743 124.648C464.885 124.463 466.302 123.836 467.232 123.386C467.285 122.857 467.285 122.539 467.285 122.539C467.285 122.539 467.578 122.371 467.985 122.08C467.905 122.071 467.817 122.098 467.746 122.133C466.311 122.918 463.708 124.066 462.831 123.792C462.716 123.757 462.574 123.677 462.494 123.395C462.255 122.539 462.902 120.721 463.814 119.654C463.964 119.486 463.956 119.23 463.805 119.071C463.654 118.904 463.398 118.877 463.221 119.018C462.344 119.662 459.802 121.242 458.536 120.836C458.35 120.774 458.323 120.695 458.314 120.651C458.261 120.448 458.341 120.13 458.509 119.768C458.846 119.027 459.528 118.083 460.068 117.465C460.13 117.395 460.165 117.306 460.174 117.227C460.192 117.086 460.139 116.945 460.032 116.848C459.846 116.689 459.572 116.706 459.412 116.892C459.173 117.165 458.332 118.153 457.827 119.177C457.641 119.548 457.508 119.927 457.455 120.271C457.42 120.492 457.429 120.704 457.482 120.889C457.562 121.154 457.756 121.507 458.288 121.674C459.377 122.036 460.927 121.401 462.105 120.765Z" fill="#D96C63"/>
<path d="M455.375 117.067C455.552 117.12 455.676 117.261 455.694 117.446C455.738 118.02 455.871 118.514 456.084 118.805C456.252 119.035 456.411 119.061 456.535 119.061C456.73 119.052 456.978 118.955 457.261 118.797C457.961 118.399 458.847 117.614 459.617 116.846C459.608 116.935 459.573 117.014 459.511 117.085C458.971 117.702 458.289 118.647 457.952 119.388C457.864 119.441 457.775 119.502 457.687 119.547C457.403 119.705 457.138 119.82 456.89 119.891C456.774 119.917 456.677 119.935 456.571 119.935C456.092 119.953 455.676 119.741 455.366 119.317C455.047 118.876 454.87 118.223 454.808 117.508C454.782 117.208 455.065 116.979 455.357 117.058C455.366 117.067 455.366 117.067 455.375 117.067Z" fill="#D96C63"/>
<path d="M449.066 121.984C449.181 121.993 450.89 122.169 452.546 121.887C453.467 121.737 454.371 121.445 454.973 120.907C455.469 120.466 455.735 119.91 455.752 119.257C455.805 116.928 453.414 115.63 451.98 115.066C451.909 115.533 451.873 115.798 451.873 115.798C451.873 115.798 451.714 115.789 451.448 115.798C452.653 116.248 454.911 117.342 454.876 119.231C454.867 119.637 454.707 119.963 454.397 120.245C453.228 121.278 450.217 121.216 449.164 121.101C448.924 121.075 448.703 121.251 448.676 121.49C448.65 121.745 448.827 121.957 449.066 121.984Z" fill="#D96C63"/>
<path d="M458.509 130.357C458.66 130.33 458.792 130.233 458.846 130.083C458.934 129.854 458.819 129.607 458.589 129.518C457.367 129.06 456.534 128.283 456.136 127.233C455.1 124.524 457.039 120.756 457.065 120.721C457.181 120.509 457.092 120.244 456.88 120.13C456.667 120.015 456.401 120.103 456.286 120.315C456.198 120.483 454.143 124.471 455.321 127.542C455.817 128.848 456.818 129.783 458.288 130.339C458.358 130.366 458.438 130.374 458.509 130.357Z" fill="#D96C63"/>
<path d="M393.175 123.644L402.35 131.585C403.82 132.953 405.29 134.303 406.769 135.653C408.239 137.003 409.709 138.344 411.188 139.668C412.667 140.992 414.137 142.306 415.607 143.595C417.077 144.883 418.556 146.145 420.017 147.354C421.469 148.572 422.931 149.745 424.294 150.751C424.967 151.254 425.632 151.713 426.163 152.057L426.517 152.286L426.659 152.375C426.694 152.392 426.694 152.401 426.712 152.419C426.765 152.472 426.801 152.507 426.827 152.542C426.871 152.604 426.871 152.657 426.925 152.701C426.978 152.754 427.119 152.789 427.376 152.772C427.89 152.737 428.846 152.41 429.953 151.775C431.051 151.139 432.273 150.222 433.478 149.145C434.682 148.06 435.913 146.842 437.1 145.518C439.482 142.862 441.776 139.871 443.945 136.738C446.124 133.606 447.665 131.188 449.631 127.853C452.81 131.682 457.699 133.579 463.003 132.944C461.507 136.994 459.78 140.93 457.831 144.839C455.857 148.73 453.678 152.587 451.03 156.363C449.702 158.252 448.267 160.131 446.611 161.967C444.955 163.802 443.113 165.611 440.864 167.323C439.739 168.17 438.508 168.999 437.118 169.749C435.727 170.491 434.186 171.17 432.468 171.682C430.75 172.185 428.846 172.529 426.863 172.564C424.879 172.608 422.824 172.344 420.92 171.805C419.964 171.541 419.043 171.214 418.175 170.835L417.537 170.544L416.997 170.279C416.811 170.191 416.661 170.111 416.492 170.023C416.333 169.935 416.156 169.846 416.005 169.767C414.765 169.096 413.703 168.452 412.684 167.808C410.665 166.529 408.85 165.258 407.07 163.97C405.299 162.681 403.598 161.375 401.916 160.069C400.242 158.763 398.586 157.44 396.965 156.107C395.345 154.766 393.733 153.434 392.148 152.075C390.562 150.716 388.995 149.348 387.427 147.972C385.878 146.586 384.328 145.201 382.796 143.798L380.502 141.68L379.369 140.603C378.988 140.242 378.616 139.889 378.217 139.5L393.175 123.644Z" fill="#FAAF3A"/>
<path d="M401.933 161.155C401.827 161.155 401.712 161.12 401.614 161.058C395.557 156.831 384.779 147.928 384.673 147.839C384.434 147.645 384.407 147.301 384.602 147.063C384.797 146.825 385.142 146.798 385.381 146.992C385.488 147.08 396.23 155.957 402.252 160.158C402.5 160.334 402.562 160.678 402.385 160.925C402.278 161.075 402.11 161.155 401.933 161.155Z" fill="#C77E2E"/>
<path d="M389.402 151.518C389.375 151.518 389.349 151.518 389.322 151.51L385.054 150.892C384.753 150.848 384.54 150.565 384.584 150.265C384.629 149.965 384.912 149.754 385.213 149.798L389.482 150.415C389.783 150.46 389.995 150.742 389.951 151.042C389.907 151.324 389.668 151.518 389.402 151.518Z" fill="#C77E2E"/>
<path d="M460.026 139.808C460.247 139.693 460.371 139.446 460.318 139.19C460.256 138.89 459.955 138.696 459.645 138.758C451.604 140.505 447.601 132.863 447.565 132.784C447.424 132.51 447.087 132.396 446.804 132.537C446.804 132.537 446.804 132.537 446.795 132.537C446.52 132.678 446.414 133.013 446.556 133.287C446.6 133.375 451.002 141.776 459.884 139.843C459.937 139.852 459.981 139.834 460.026 139.808Z" fill="#C77E2E"/>
<path d="M455.902 139.958C456.017 139.896 456.106 139.808 456.159 139.685L458.807 133.525C458.931 133.243 458.798 132.908 458.514 132.784C458.231 132.661 457.895 132.793 457.771 133.075L455.123 139.235C454.999 139.517 455.132 139.852 455.415 139.976C455.583 140.046 455.751 140.029 455.902 139.958Z" fill="#C77E2E"/>
<path d="M451.163 134.038C451.411 134.514 452.004 134.7 452.482 134.452C452.96 134.205 453.146 133.614 452.898 133.138C452.65 132.661 452.057 132.476 451.579 132.723C451.101 132.979 450.906 133.561 451.163 134.038Z" fill="#C77E2E"/>
<path d="M425.648 159.618C425.798 159.539 425.913 159.389 425.94 159.213C425.949 159.177 426.542 155.665 427.587 153.618C427.729 153.345 427.623 153 427.339 152.859C427.065 152.718 426.719 152.833 426.578 153.106C425.453 155.312 424.851 158.877 424.824 159.027C424.771 159.336 424.983 159.618 425.285 159.671C425.426 159.698 425.55 159.671 425.648 159.618Z" fill="#C77E2E"/>
<path d="M429.315 158.357C429.35 158.339 429.386 158.312 429.421 158.286C429.66 158.083 429.687 157.73 429.492 157.492C429.474 157.474 427.907 155.586 427.535 153.75C427.473 153.45 427.172 153.247 426.87 153.309C426.569 153.371 426.366 153.671 426.428 153.971C426.862 156.089 428.553 158.118 428.633 158.207C428.792 158.418 429.084 158.471 429.315 158.357Z" fill="#C77E2E"/>
<path d="M103.448 230.435L116.404 277.644L111.781 272.34C113.49 273.249 115.474 273.946 117.661 274.432C119.849 274.926 122.24 275.208 124.737 275.332C127.234 275.464 129.838 275.438 132.504 275.332C135.169 275.217 137.888 275.023 140.651 274.785H140.669C144.742 274.441 148.329 277.45 148.674 281.509C149.002 285.382 146.248 288.806 142.466 289.424C139.615 289.874 136.719 290.306 133.752 290.65C130.777 290.994 127.73 291.25 124.578 291.321C121.425 291.392 118.157 291.268 114.774 290.783C111.4 290.297 107.902 289.415 104.484 287.95C102.296 287.006 100.738 285.224 100.029 283.132L99.8609 282.638L84.3188 236.215C82.5742 231 85.3993 225.352 90.6419 223.614C95.8757 221.876 101.543 224.69 103.288 229.914C103.35 230.082 103.403 230.276 103.448 230.435Z" fill="#EA9B7A"/>
<path d="M108.438 401.565C108.243 401.565 108.048 401.53 107.853 401.46L39.982 377.079C39.0964 376.761 38.627 375.781 38.9547 374.899C39.2735 374.017 40.2565 373.549 41.1421 373.875L109.013 398.256C109.899 398.574 110.368 399.554 110.041 400.436C109.793 401.133 109.137 401.565 108.438 401.565Z" fill="#CED3E6"/>
<path d="M37.7446 401.569C37.045 401.569 36.3896 401.137 36.1328 400.44C35.814 399.557 36.2745 398.578 37.1601 398.252L105.837 373.465C106.723 373.147 107.706 373.606 108.034 374.488C108.352 375.371 107.892 376.35 107.006 376.677L38.3291 401.464C38.1342 401.534 37.9394 401.569 37.7446 401.569Z" fill="#CED3E6"/>
<path d="M114.474 445.145C113.03 445.145 111.773 444.078 111.569 442.613L99.3125 351.398H48.0194L35.9488 442.613C35.7363 444.21 34.2662 445.339 32.6633 445.128C31.0604 444.916 29.9268 443.451 30.1394 441.854L42.5465 348.116C42.7413 346.66 43.9811 345.574 45.4512 345.574H101.89C103.36 345.574 104.599 346.66 104.794 348.107L117.396 441.845C117.609 443.442 116.484 444.916 114.881 445.128C114.739 445.136 114.607 445.145 114.474 445.145Z" fill="white"/>
<path d="M85.5284 348.483H48.8828C37.2728 348.483 24.8392 342.148 23.0503 330.72C20.6681 315.428 20.0747 300.63 20.7389 287.041C21.4917 271.679 28.8597 257.384 40.9746 247.854C40.9746 247.854 48.2984 279.647 39.0883 323.529C42.6129 340.197 85.5284 348.483 85.5284 348.483Z" fill="white"/>
<path d="M77.899 162.023C77.899 162.023 73.5419 151.558 62.0027 153.534C53.9439 154.911 50.5078 164.917 50.9772 180.377C51.6679 202.87 44.0342 216.424 44.0342 216.424L54.1653 218.718C54.1741 218.709 79.9713 180.157 77.899 162.023Z" fill="#39393B"/>
<path d="M170.335 406.064H153.961C153.961 406.064 150.171 387.957 148.904 377.81C147.629 367.653 146.974 343.59 146.974 343.59C146.974 343.59 133.929 347.817 106.618 346.22C46.1054 342.699 69.0509 298.402 69.0509 298.402C71.0966 301.217 83.6188 299.267 92.1824 300.608C118.458 303.123 141.235 313.394 154.909 319.271C158.203 320.683 161.125 322.183 163.694 323.762C166.988 325.783 169.051 331.933 170.3 340.007C174.028 364.291 170.335 406.064 170.335 406.064Z" fill="#39393B"/>
<path d="M155.983 397.344C155.709 397.344 155.47 397.15 155.408 396.877C153.043 385.229 152.255 370.731 151.617 359.083C151.086 349.421 150.59 340.297 149.341 339.203C148.332 338.311 144.143 339.008 138.847 339.882C128.3 341.629 112.359 344.259 94.7893 340.191C85.2161 337.967 78.1757 333.335 73.8717 326.416C66.4417 314.486 69.8334 299.688 69.8689 299.538C69.9397 299.221 70.2585 299.026 70.5773 299.106C70.8962 299.177 71.091 299.494 71.0113 299.812C70.9759 299.953 67.708 314.292 74.8813 325.808C79.017 332.452 85.8094 336.908 95.0638 339.053C112.412 343.076 128.211 340.464 138.67 338.735C144.931 337.702 148.713 337.076 150.138 338.329C151.679 339.688 152.113 346.359 152.804 359.021C153.442 370.634 154.23 385.079 156.577 396.647C156.639 396.965 156.435 397.274 156.116 397.336C156.063 397.336 156.028 397.336 155.983 397.344Z" fill="#585859"/>
<path d="M170.641 397.64H170.632L152.424 397.252C152.096 397.243 151.84 396.979 151.848 396.652C151.857 396.326 152.123 396.07 152.451 396.079L170.658 396.467C170.986 396.476 171.243 396.74 171.234 397.067C171.216 397.393 170.959 397.64 170.641 397.64Z" fill="#585859"/>
<path d="M169.881 426.965H158.324L156.101 413.455L154.879 406.061H169.234L169.464 413.455L169.881 426.965Z" fill="#EA9B7A"/>
<path d="M169.886 426.964H158.329L156.673 416.905L156.106 413.454H169.47L169.576 417.028L169.886 426.964Z" fill="#FAAF3A"/>
<path d="M169.576 417.028L156.673 416.905L156.106 413.454H169.47L169.576 417.028Z" fill="#C77E2E"/>
<path d="M198.405 445.145H154.701C154.373 444.554 154.196 443.724 154.125 442.727C153.851 439.038 155.029 433.162 155.604 429.456C155.675 429.023 155.737 428.617 155.781 428.255C155.861 427.638 155.914 427.117 155.914 426.738C155.914 423.711 158.598 424.232 158.598 424.232C163.017 428.555 168.029 422.07 170.951 424.196C170.951 424.196 171.067 424.285 171.341 424.488C171.589 424.682 171.961 424.982 172.475 425.414C173.219 426.032 174.264 426.932 175.68 428.203C179.152 431.317 185.05 433.365 190.071 435.456C190.709 435.721 191.302 435.985 191.86 436.259C192.276 436.462 192.675 436.665 193.047 436.859C197.156 439.065 198.458 441.183 198.759 442.718C199.042 444.201 198.405 445.145 198.405 445.145Z" fill="#0875F7"/>
<path d="M193.047 436.877C191.923 437.768 189.417 439.559 187.406 439.559C187.318 439.559 187.229 439.559 187.141 439.551C185.724 439.436 180.516 436.886 176.274 434.565C173.848 433.233 171.625 431.927 170.031 430.877C167.419 429.156 166.958 428.503 166.861 428.044C166.48 426.323 169.331 425.132 171.333 424.506C171.581 424.7 171.953 425 172.466 425.432C169.987 426.103 167.941 427.162 168.039 427.77C168.286 428.282 170.872 430.241 177.054 433.621C181.774 436.197 186.246 438.271 187.238 438.359C188.584 438.465 190.559 437.248 191.852 436.286C192.286 436.471 192.676 436.674 193.047 436.877Z" fill="#084FC7"/>
<path d="M198.401 445.143H154.697C154.37 444.551 154.192 443.722 154.122 442.725H198.764C199.039 444.198 198.401 445.143 198.401 445.143Z" fill="#084FC7"/>
<path d="M159.144 445.145H157.842C159.135 443.672 160.348 441.404 160.189 438.174C159.977 433.868 157.391 430.974 155.584 429.456C155.655 429.024 155.717 428.618 155.761 428.256C157.701 429.73 160.968 432.968 161.225 438.121C161.385 441.219 160.366 443.522 159.144 445.145Z" fill="#084FC7"/>
<path d="M174.934 430.78C174.615 430.78 174.314 430.56 174.235 430.233C174.137 429.845 174.376 429.457 174.757 429.36L177.485 428.68C177.874 428.583 178.264 428.821 178.362 429.201C178.459 429.589 178.22 429.977 177.839 430.074L175.111 430.754C175.058 430.78 174.996 430.78 174.934 430.78Z" fill="white"/>
<path d="M172.225 428.517C171.906 428.517 171.605 428.296 171.525 427.97C171.428 427.581 171.667 427.193 172.048 427.096L174.775 426.416C175.165 426.319 175.555 426.558 175.652 426.937C175.749 427.325 175.51 427.714 175.13 427.811L172.402 428.49C172.34 428.508 172.287 428.517 172.225 428.517Z" fill="white"/>
<path d="M177.67 432.368C177.351 432.368 177.05 432.147 176.971 431.821C176.873 431.432 177.112 431.044 177.493 430.947L180.221 430.268C180.61 430.17 181 430.409 181.097 430.788C181.195 431.176 180.956 431.565 180.575 431.662L177.847 432.341C177.785 432.359 177.723 432.368 177.67 432.368Z" fill="white"/>
<path d="M180.401 433.883C180.082 433.883 179.781 433.662 179.701 433.336C179.604 432.947 179.843 432.559 180.223 432.462L182.951 431.783C183.341 431.686 183.73 431.924 183.828 432.303C183.925 432.692 183.686 433.08 183.305 433.177L180.578 433.856C180.516 433.874 180.463 433.883 180.401 433.883Z" fill="white"/>
<path d="M183.367 435.29C183.049 435.29 182.747 435.069 182.668 434.742C182.57 434.354 182.809 433.966 183.19 433.878L185.918 433.198C186.308 433.101 186.697 433.339 186.795 433.719C186.892 434.107 186.653 434.495 186.272 434.592L183.545 435.272C183.483 435.281 183.429 435.29 183.367 435.29Z" fill="white"/>
<path d="M186.602 436.491C186.283 436.491 185.982 436.271 185.902 435.944C185.805 435.556 186.044 435.168 186.425 435.071L189.152 434.391C189.542 434.294 189.932 434.532 190.029 434.912C190.126 435.3 189.887 435.688 189.506 435.776L186.779 436.456C186.717 436.482 186.655 436.491 186.602 436.491Z" fill="white"/>
<path d="M38.7463 284.35C38.7463 284.35 38.2327 287.87 42.9617 288.859L92.2712 290.5C92.2712 290.5 95.601 288.832 94.9988 284.72C94.9899 284.711 74.1698 273.064 38.7463 284.35Z" fill="#084FC7"/>
<path d="M92.9371 300.595C67.3436 314.625 39.3945 303.331 39.3945 303.331C40.7583 299.616 41.7768 295.424 42.5118 291.612C43.362 287.174 43.8402 283.256 44.0616 281.2C54.9454 280.609 81.637 279.47 92.0958 281.941L92.1755 286.115L92.9371 300.595Z" fill="#EA9B7A"/>
<path d="M74.0274 293.874C73.8415 295.189 73.2393 296.195 72.699 296.115C72.15 296.036 71.8666 294.906 72.0526 293.592C72.2385 292.277 72.8407 291.271 73.3809 291.35C73.93 291.43 74.2223 292.559 74.0274 293.874Z" fill="#D96C63"/>
<path d="M92.173 286.115C81.2714 285.453 59.8313 285.224 42.5093 291.604C43.3594 287.165 43.8377 283.247 44.0591 281.191C54.9429 280.6 81.6345 279.462 92.0933 281.932L92.173 286.115Z" fill="#D96C63"/>
<path d="M104.333 265.943C104.227 266.26 104.103 266.552 103.97 266.825C103.917 266.931 103.864 267.037 103.811 267.134C102.438 269.666 100.322 271.864 98.5417 273.426C98.1698 273.752 97.8155 274.043 97.4879 274.308C96.8325 274.837 96.2746 275.252 95.8938 275.526C95.5396 275.773 95.3359 275.905 95.3359 275.905C95.3359 275.932 95.3359 275.949 95.327 275.984C95.3093 276.17 95.2916 276.373 95.2739 276.585C95.2119 277.388 95.1588 278.341 95.1234 279.435C95.0879 280.308 95.0614 281.27 95.0437 282.311C95.0348 283.079 95.0171 283.882 95.0082 284.712C80.5466 278.27 50.7555 282.338 38.7558 284.35C38.9772 283.317 39.172 282.303 39.358 281.314C40.2081 276.752 40.6864 272.649 40.8723 268.969C41.1557 263.498 40.6775 255.274 39.5085 246.777C39.4377 246.221 39.358 245.674 39.2783 245.127C39.2251 244.765 39.172 244.412 39.11 244.05C38.7026 241.385 38.2244 238.712 37.6842 236.117C35.3197 224.805 36.9757 212.936 48.4884 211.533C49.3208 211.428 50.1444 211.339 50.9503 211.251C56.3701 210.678 60.8335 210.475 62.0733 210.43C62.3035 210.422 62.4186 210.422 62.4186 210.422L84.6646 216.863L86.7811 217.472C87.9944 217.86 89.1191 218.24 90.1641 218.61C90.6069 218.769 91.0408 218.928 91.4482 219.078C92.5286 219.484 93.5027 219.872 94.3972 220.269C96.1772 221.055 97.5941 221.822 98.7011 222.608C103.581 226.058 102.828 229.958 102.704 237.662C102.704 237.697 102.704 237.732 102.704 237.767C102.704 237.865 102.704 237.962 102.704 238.067C102.704 238.112 102.704 238.156 102.704 238.2C102.704 238.517 102.704 238.826 102.704 239.144C102.713 240.141 102.748 241.129 102.81 242.118C102.89 243.574 103.023 245.021 103.182 246.433C103.244 246.997 103.306 247.562 103.377 248.127C103.439 248.656 103.51 249.177 103.581 249.698C104.44 256.43 105.547 262.342 104.333 265.943Z" fill="#0875F7"/>
<path d="M102.679 237.768C102.679 237.865 102.679 237.962 102.679 238.068C102.679 238.112 102.679 238.156 102.679 238.2C102.679 238.518 102.679 238.827 102.679 239.145L98.0033 242.065C97.8616 242.154 97.7022 242.18 97.5428 242.154C97.3657 242.127 97.2063 242.021 97.1 241.862C96.9052 241.554 97.0026 241.157 97.3037 240.962L102.263 237.865C102.396 237.777 102.537 237.75 102.679 237.768Z" fill="#084FC7"/>
<path d="M71.86 262.714C71.6829 262.714 71.5058 262.644 71.3729 262.502C71.1338 262.238 71.1515 261.823 71.4172 261.585L75.7655 257.684C76.0311 257.446 76.4474 257.464 76.6865 257.728C76.9256 257.993 76.9079 258.408 76.6422 258.646L72.294 262.546C72.17 262.661 72.0194 262.714 71.86 262.714Z" fill="#084FC7"/>
<path d="M103.545 249.689L100.57 252.363C100.446 252.478 100.286 252.531 100.136 252.531C99.9588 252.531 99.7817 252.46 99.6488 252.319C99.4097 252.054 99.4274 251.639 99.6931 251.401L103.342 248.127C103.413 248.648 103.483 249.169 103.545 249.689Z" fill="#084FC7"/>
<path d="M63.037 247.033C62.9396 246.883 62.8953 246.698 62.9396 246.512C63.0193 246.159 63.3735 245.947 63.7277 246.027L69.4221 247.368C69.7763 247.448 69.9888 247.801 69.9091 248.154C69.8294 248.506 69.4752 248.718 69.121 248.639L63.4266 247.298C63.2584 247.253 63.1255 247.156 63.037 247.033Z" fill="#084FC7"/>
<path d="M42.7238 258.161C42.5467 258.161 42.3696 258.09 42.2367 257.949C41.9976 257.684 42.0153 257.269 42.281 257.031L46.6292 253.131C46.8949 252.893 47.3111 252.91 47.5502 253.175C47.7893 253.44 47.7716 253.854 47.5059 254.093L43.1577 257.993C43.0337 258.108 42.8743 258.161 42.7238 258.161Z" fill="#084FC7"/>
<path d="M93.3435 257.234C93.3966 257.066 93.5295 256.916 93.6977 256.845C94.0254 256.704 94.415 256.854 94.5567 257.181L96.8947 262.528C97.0364 262.855 96.8858 263.243 96.5581 263.384C96.2305 263.525 95.8408 263.375 95.6991 263.049L93.3612 257.701C93.2992 257.542 93.2903 257.384 93.3435 257.234Z" fill="#084FC7"/>
<path d="M104.332 265.943C104.226 266.261 104.102 266.552 103.969 266.826C103.916 266.932 103.863 267.037 103.81 267.135L100.631 266.137C100.471 266.084 100.347 265.979 100.268 265.846C100.179 265.696 100.144 265.502 100.206 265.326C100.312 264.981 100.684 264.796 101.02 264.902L104.332 265.943Z" fill="#084FC7"/>
<path d="M86.3716 266.412C86.5487 266.394 86.7346 266.447 86.8763 266.579C87.142 266.818 87.1597 267.232 86.9206 267.497L82.9886 271.812C82.7495 272.077 82.3333 272.094 82.0676 271.856C81.8019 271.618 81.7842 271.203 82.0233 270.938L85.9553 266.624C86.0705 266.491 86.221 266.421 86.3716 266.412Z" fill="#084FC7"/>
<path d="M84.0633 256.45C83.8862 256.423 83.7268 256.318 83.6205 256.159C83.4257 255.859 83.5231 255.453 83.8242 255.259L88.7835 252.161C89.0846 251.967 89.4919 252.064 89.6868 252.364C89.8816 252.664 89.7842 253.07 89.4831 253.264L84.5238 256.362C84.3732 256.45 84.2138 256.476 84.0633 256.45Z" fill="#084FC7"/>
<path d="M87.216 237.671C87.3311 237.803 87.4019 237.979 87.3754 238.174C87.3399 238.526 87.0123 238.791 86.658 238.747L80.8397 238.112C80.4855 238.076 80.2198 237.75 80.2641 237.397C80.2995 237.044 80.6272 236.779 80.9814 236.823L86.7997 237.459C86.968 237.476 87.1097 237.556 87.216 237.671Z" fill="#084FC7"/>
<path d="M78.7562 225.105C78.8004 224.929 78.9156 224.779 79.0838 224.691C79.4026 224.523 79.8012 224.638 79.9694 224.955L82.7413 230.091C82.9096 230.409 82.7944 230.806 82.4756 230.973C82.1568 231.141 81.7583 231.026 81.59 230.709L78.8182 225.573C78.7385 225.414 78.7207 225.255 78.7562 225.105Z" fill="#084FC7"/>
<path d="M98.5314 273.427C98.1594 273.753 97.8052 274.044 97.4775 274.309L96.7159 272.368C96.6539 272.209 96.6539 272.05 96.7159 271.9C96.7779 271.733 96.9108 271.591 97.0879 271.521C97.4244 271.388 97.8052 271.556 97.938 271.883L98.5314 273.427Z" fill="#084FC7"/>
<path d="M45.0435 263.552C44.9549 263.393 44.9372 263.208 45.0081 263.022C45.1321 262.687 45.504 262.511 45.8405 262.634L51.3489 264.611C51.6854 264.734 51.8625 265.105 51.7385 265.44C51.6146 265.776 51.2426 265.952 50.9061 265.829L45.3977 263.852C45.2383 263.799 45.1232 263.684 45.0435 263.552Z" fill="#084FC7"/>
<path d="M47.7417 270.965C47.9188 270.965 48.0959 271.044 48.2287 271.185C48.4678 271.45 48.4413 271.865 48.1756 272.103L43.7919 275.968C43.5263 276.206 43.11 276.18 42.8709 275.915C42.6318 275.65 42.6584 275.236 42.9241 274.997L47.3077 271.133C47.4317 271.018 47.5823 270.965 47.7417 270.965Z" fill="#084FC7"/>
<path d="M55.684 277.097C55.7992 277.239 55.8523 277.424 55.8169 277.609C55.7549 277.962 55.4184 278.2 55.0641 278.139L49.299 277.159C48.9447 277.097 48.7056 276.762 48.7676 276.409C48.8296 276.056 49.1661 275.818 49.5204 275.88L55.2855 276.859C55.4449 276.894 55.5866 276.983 55.684 277.097Z" fill="#084FC7"/>
<path d="M60.5041 222.511C60.4598 222.343 60.4775 222.149 60.5838 221.99C60.7786 221.69 61.186 221.602 61.4871 221.796L66.4021 224.955C66.7032 225.149 66.7917 225.555 66.5969 225.855C66.4021 226.155 65.9947 226.244 65.6936 226.049L60.7786 222.89C60.6458 222.802 60.5484 222.661 60.5041 222.511Z" fill="#084FC7"/>
<path d="M94.0609 226.235C94.2203 226.147 94.4063 226.129 94.5923 226.191C94.9288 226.315 95.1059 226.685 94.9908 227.021L93.0336 232.518C92.9097 232.853 92.5377 233.03 92.2012 232.915C91.8647 232.792 91.6876 232.421 91.8027 232.086L93.7598 226.588C93.813 226.438 93.9192 226.315 94.0609 226.235Z" fill="#084FC7"/>
<path d="M91.4287 219.078L88.4089 222.943C88.1875 223.225 87.7801 223.278 87.4967 223.058C87.2133 222.837 87.1602 222.431 87.3816 222.149L90.1446 218.619C90.5874 218.769 91.0125 218.919 91.4287 219.078Z" fill="#084FC7"/>
<path d="M61.8789 272.414C61.9409 272.599 62.1003 272.731 62.2774 272.767C62.366 272.784 62.4634 272.784 62.5519 272.749C62.6494 272.714 72.1163 269.661 82.0703 273.773C87.127 275.864 91.6257 276.658 95.2655 276.587C95.2832 276.376 95.3009 276.182 95.3186 275.987C95.3186 275.961 95.3275 275.934 95.3275 275.917C95.3275 275.917 95.5312 275.784 95.8854 275.537C92.3076 275.714 87.7292 274.955 82.4776 272.793C72.1428 268.522 62.6139 271.611 62.2154 271.743C61.9409 271.831 61.7903 272.131 61.8789 272.414Z" fill="#084FC7"/>
<path d="M84.6449 216.864C83.3963 218.788 80.8281 220.967 75.6208 220.597C68.4387 220.076 63.7097 213.246 62.0625 210.44C62.2839 210.431 62.4079 210.431 62.4079 210.431L84.6449 216.864Z" fill="#084FC7"/>
<path d="M77.0035 229.526C77.216 229.57 77.4286 229.596 77.6411 229.614C79.6248 229.773 81.2366 229.199 82.4233 227.911C85.8771 224.152 84.4601 215.575 84.3981 215.213C84.345 214.922 84.0705 214.728 83.7871 214.781C83.4948 214.834 83.3 215.107 83.3531 215.39C83.3708 215.478 84.7435 223.817 81.644 227.196C80.6787 228.246 79.3946 228.696 77.7385 228.564C70.7778 228.008 62.9758 210.386 62.8961 210.21C62.781 209.945 62.4622 209.822 62.1965 209.936C61.9308 210.051 61.8068 210.369 61.922 210.634C62.2319 211.366 69.6265 228.043 77.0035 229.526Z" fill="white"/>
<path d="M98.6861 222.607C98.2256 227.69 99.4831 236.082 102.777 242.117C102.698 240.811 102.662 239.506 102.68 238.2C102.68 238.155 102.68 238.111 102.68 238.067C102.68 237.935 102.689 237.802 102.689 237.67C102.813 229.958 103.566 226.058 98.6861 222.607Z" fill="#EA9B7A"/>
<path d="M57.7709 231.557C55.2205 241.369 45.8864 249.24 39.5102 246.787C39.4304 246.24 39.3596 245.684 39.2799 245.137C39.2268 244.775 39.1736 244.422 39.1205 244.061C38.7131 241.396 38.2349 238.722 37.6947 236.128C35.3302 224.815 36.9951 212.947 48.4989 211.544C49.3313 211.438 50.1549 211.35 50.9608 211.261C56.6994 213.706 60.7022 220.253 57.7709 231.557Z" fill="#EA9B7A"/>
<path d="M59.0807 224.074L74.0294 278.554L68.6981 272.43C70.673 273.471 72.9578 274.283 75.4906 274.848C78.0145 275.413 80.7775 275.739 83.6557 275.889C86.5427 276.039 89.5448 276.013 92.6178 275.889C95.6908 275.766 98.8346 275.536 102.023 275.263H102.04C106.743 274.866 110.879 278.333 111.277 283.019C111.658 287.484 108.479 291.446 104.104 292.152C100.818 292.673 97.4708 293.167 94.0436 293.564C90.6164 293.961 87.1006 294.252 83.452 294.34C79.8122 294.42 76.0396 294.287 72.1431 293.723C68.2553 293.158 64.2171 292.152 60.2674 290.449C57.7434 289.364 55.9457 287.299 55.1221 284.89L54.9361 284.325L36.9941 230.745C34.975 224.727 38.2428 218.215 44.2825 216.203C50.3222 214.191 56.8578 217.447 58.877 223.465C58.9567 223.651 59.0275 223.88 59.0807 224.074Z" fill="#EA9B7A"/>
<path d="M65.7745 276.805C65.624 276.805 65.4734 276.726 65.3937 276.585C65.2698 276.373 65.3495 276.108 65.562 275.984C65.7037 275.905 68.9715 274.07 72.3899 273.805C72.6378 273.787 72.8504 273.964 72.8681 274.211C72.8858 274.458 72.7087 274.67 72.4607 274.687C69.246 274.934 66.0314 276.735 66.0048 276.752C65.9251 276.787 65.8454 276.805 65.7745 276.805Z" fill="#D96C63"/>
<path d="M71.2037 274.837C71.124 274.837 71.0443 274.82 70.9735 274.776C68.91 273.531 66.4127 273.337 66.3861 273.337C66.1382 273.32 65.961 273.108 65.9788 272.87C65.9965 272.622 66.2002 272.446 66.4481 272.464C66.5544 272.472 69.1846 272.667 71.4251 274.025C71.6377 274.149 71.6996 274.423 71.5757 274.634C71.5048 274.758 71.3543 274.837 71.2037 274.837Z" fill="#D96C63"/>
<path d="M84.54 246.126C91.1554 247.458 94.0512 240.646 94.0778 240.575C94.1929 240.302 94.0601 239.993 93.7856 239.887C93.511 239.772 93.2011 239.905 93.0948 240.178C92.9885 240.434 90.4912 246.249 84.7526 245.093C78.7217 243.876 67.4748 232.06 67.3685 231.937C67.1648 231.725 66.8283 231.716 66.6158 231.919C66.4032 232.122 66.3944 232.457 66.5981 232.669C67.0586 233.154 78.1815 244.838 84.54 246.126Z" fill="#084FC7"/>
<path d="M74.132 203.213C74.132 203.213 63.5139 201.219 60.5206 190.542C57.669 180.377 59.8652 175.1 62.832 169.611C65.0636 165.473 72.1483 159.887 82.0757 161.89C92.1006 163.911 99.6015 169.047 100.708 177.262C102.781 192.633 90.3294 211.384 74.132 203.213Z" fill="#39393B"/>
<path d="M61.0261 192.191C60.8313 192.191 60.6453 192.094 60.5479 191.909C60.353 191.573 55.8897 183.57 59.6003 173.034C61.9205 166.451 66.4813 163.513 69.9085 162.198C73.6103 160.777 76.7187 160.918 76.8515 160.918C77.1526 160.936 77.3917 161.192 77.374 161.501C77.3563 161.801 77.1083 162.039 76.7984 162.021C76.7718 162.021 73.752 161.898 70.2628 163.239C65.6223 165.03 62.3899 168.445 60.6453 173.396C57.1118 183.437 61.4689 191.282 61.5132 191.361C61.6637 191.626 61.5752 191.962 61.3095 192.112C61.2121 192.164 61.1147 192.191 61.0261 192.191Z" fill="#FAAF3A"/>
<path d="M94.7384 192.37C94.7384 192.37 98.1922 189.652 99.1043 193.253C100.016 196.853 97.4483 203.25 93.4277 201.309L94.7384 192.37Z" fill="#D96C63"/>
<path d="M91.3586 198.975C89.6406 199.539 88.1262 201.057 87.7365 202.937C87.1698 205.743 88.9941 208.478 91.8014 209.052C94.6175 209.617 97.3629 207.799 97.9385 205.002C98.3636 202.901 97.4514 200.837 95.7777 199.698C95.2197 199.31 94.5733 199.036 93.8648 198.895C93.8471 198.895 93.8294 198.886 93.8117 198.886C93.7142 199.239 93.7497 199.522 93.9534 199.742C94.5201 199.892 95.0338 200.148 95.4854 200.484C96.7872 201.472 97.4868 203.14 97.1415 204.843C96.6632 207.208 94.3342 208.743 91.9608 208.266C89.5874 207.79 88.0465 205.469 88.5247 203.104C88.8789 201.384 90.1542 200.166 91.7571 199.778L91.3586 198.975Z" fill="#FAAF3A"/>
<path d="M84.2637 207.792L82.8202 216.81C82.8202 216.81 76.0455 223.701 63.6738 211.339C66.9948 208.877 68.2612 203.159 67.8715 199.47C67.8715 199.47 68.8457 200.053 70.3511 201.412C70.6434 201.676 71.0242 201.879 71.3873 202.135C74.6551 204.341 79.6675 207.227 84.2637 207.792Z" fill="#EA9B7A"/>
<path d="M84.2636 207.789L83.5817 212.06C79.8711 210.41 73.3089 206.889 70.3511 201.4C70.6699 201.63 71.0241 201.868 71.3872 202.124C74.655 204.339 79.6674 207.224 84.2636 207.789Z" fill="#39393B"/>
<path d="M98.0822 190.187C97.8873 191.14 97.7102 192.049 97.5242 192.914C97.3294 193.849 97.1434 194.732 96.9575 195.561C95.5848 201.8 94.4601 205.144 92.6358 206.397C83.3991 212.724 68.3707 199.911 67.8837 199.497C67.8748 199.488 67.8748 199.488 67.8748 199.488C67.866 198.755 67.866 198.023 67.8748 197.308C67.9899 191.237 69.0261 185.784 70.6733 180.745C71.4969 175.239 75.7831 170.827 81.3003 169.998C87.0212 169.142 91.3251 172.442 94.0173 173.898C98.0822 176.104 99.6674 182.237 98.0822 190.187Z" fill="#EA9B7A"/>
<path d="M70.9818 175.08C70.9818 175.08 77.4466 162.691 90.3407 166.15C103.235 169.609 103.917 175.575 104.147 178.557C104.377 181.54 97.4697 176.254 97.4697 176.254C97.4697 176.254 97.2306 182.219 94.9281 180.384C92.103 178.125 88.9504 173.263 88.9504 173.263C88.9504 173.263 81.2723 180.781 73.9751 178.751C69.8305 177.604 70.9818 175.08 70.9818 175.08Z" fill="#39393B"/>
<path d="M86.8283 202.338C85.1545 202.338 84.0032 201.182 83.9501 201.12C83.773 200.935 83.773 200.644 83.959 200.467C84.1449 200.291 84.4283 200.291 84.6054 200.476C84.6674 200.538 85.9958 201.853 87.7493 201.253C87.9884 201.173 88.2541 201.297 88.3338 201.535C88.4135 201.773 88.2895 202.038 88.0504 202.118C87.6164 202.276 87.2091 202.338 86.8283 202.338Z" fill="#D96C63"/>
<path d="M82.9639 194.837C82.9639 194.837 89.1807 196.673 92.4043 196.673C92.4043 196.673 90.7925 201.261 86.1874 199.655C82.6008 198.411 82.9639 194.837 82.9639 194.837Z" fill="white"/>
<path d="M94.5213 181.945C94.5213 181.945 92.9096 181.777 93.1664 183.339C93.4321 184.901 96.9301 183.948 98.6659 187.071C98.657 187.071 100.331 183.789 94.5213 181.945Z" fill="#39393B"/>
<path d="M87.3361 180.491C87.3361 180.491 88.8859 180.967 88.0357 182.299C87.1856 183.632 84.334 181.399 81.5178 183.605C81.5178 183.605 81.2522 179.943 87.3361 180.491Z" fill="#39393B"/>
<path d="M84.5248 191.681C84.3742 192.413 82.7271 192.704 80.8496 192.325C78.9722 191.945 77.5729 191.045 77.7235 190.304C77.874 189.572 79.5124 189.281 81.3987 189.66C83.2761 190.039 84.6753 190.94 84.5248 191.681Z" fill="#D96C63"/>
<path d="M102.883 192.167L97.862 191.311C97.8355 191.523 97.7823 191.735 97.7381 191.938C97.7292 191.973 97.7203 192.008 97.7026 192.035L102.759 192.891C102.963 192.926 103.158 192.785 103.193 192.582C103.22 192.388 103.096 192.193 102.883 192.167Z" fill="white"/>
<path d="M89.4708 187.881C89.4708 187.625 89.462 187.369 89.4265 187.122C89.2583 185.763 88.6561 184.51 87.7351 183.539C86.8849 182.648 85.7779 181.995 84.4938 181.713C84.4761 181.704 84.4495 181.704 84.4318 181.695C81.4917 181.095 78.5958 182.631 77.4003 185.243C77.294 185.472 77.2054 185.701 77.1257 185.94C77.0549 186.151 77.0018 186.372 76.9486 186.593C76.6121 188.234 76.9398 189.857 77.7634 191.181C78.0379 191.631 78.3833 192.046 78.7641 192.408C79.5965 193.211 80.6504 193.793 81.8636 194.04C83.9093 194.464 85.9196 193.846 87.3631 192.558C88.3373 191.693 89.0546 190.51 89.338 189.143C89.338 189.134 89.338 189.134 89.338 189.125C89.4265 188.71 89.4708 188.296 89.4708 187.881ZM82.0142 193.317C81.9788 193.308 81.9522 193.308 81.9256 193.299C80.3404 192.946 79.0563 191.94 78.3036 190.625C77.6571 189.487 77.4003 188.128 77.6837 186.751C77.7457 186.469 77.8254 186.196 77.9228 185.931C77.9316 185.913 77.9405 185.895 77.9405 185.878C78.7287 183.839 80.6504 182.454 82.8112 182.331C83.2894 182.304 83.7765 182.331 84.2724 182.436C85.3351 182.657 86.2561 183.16 86.9912 183.857C88.3373 185.137 89.0103 187.06 88.6118 189.002C87.983 191.993 85.0252 193.934 82.0142 193.317Z" fill="white"/>
<path d="M100.728 185.304C100.56 185.216 100.383 185.137 100.197 185.057C99.984 184.969 99.7627 184.898 99.5413 184.828C99.3819 184.784 99.2313 184.74 99.063 184.713C98.7619 184.651 98.4697 184.616 98.1774 184.598C97.8232 184.572 97.469 184.581 97.1236 184.625C96.1583 184.731 95.2462 185.048 94.4403 185.551C93.5547 186.098 92.8019 186.866 92.2883 187.793C92.1466 188.031 92.0315 188.278 91.9252 188.525C91.9163 188.543 91.9163 188.552 91.9075 188.569C91.7747 188.905 91.6684 189.257 91.5887 189.619C91.0839 192.055 92.0669 194.455 93.9178 195.884C94.52 196.352 95.2107 196.714 95.9723 196.934C96.0875 196.97 96.2026 197.005 96.3266 197.023C96.3886 197.04 96.4417 197.049 96.5037 197.067C97.1147 197.19 97.7258 197.226 98.3191 197.173C98.4166 197.164 98.514 197.155 98.6025 197.146C98.8594 197.111 99.1162 197.067 99.373 196.996C99.8424 196.873 100.303 196.696 100.728 196.476C102.349 195.628 103.588 194.093 103.987 192.169C104.563 189.355 103.163 186.584 100.728 185.304ZM103.252 192.011C103.225 192.134 103.199 192.249 103.163 192.364C103.119 192.531 103.066 192.69 103.004 192.858C102.561 194.031 101.746 194.984 100.719 195.611C100.347 195.84 99.9398 196.026 99.5147 196.167C99.249 196.255 98.9833 196.317 98.6999 196.361C98.6202 196.379 98.5405 196.387 98.4608 196.396C97.8764 196.467 97.2653 196.449 96.6542 196.326C96.6011 196.317 96.5391 196.299 96.486 196.29C96.4506 196.281 96.4151 196.273 96.3886 196.264C95.4941 196.034 94.6971 195.593 94.0506 195.002C93.9532 194.914 93.8646 194.825 93.7761 194.737C92.5451 193.467 91.9429 191.622 92.3237 189.76C92.4123 189.346 92.5451 188.94 92.7134 188.569C93.2713 187.351 94.2454 186.407 95.4233 185.851C96.1495 185.507 96.9553 185.322 97.7878 185.322C97.9206 185.322 98.0535 185.331 98.1952 185.34C98.4343 185.357 98.6734 185.393 98.9125 185.437C99.0896 185.472 99.2579 185.516 99.4261 185.569C99.6564 185.64 99.8778 185.728 100.099 185.825C100.267 185.904 100.436 185.993 100.604 186.081C102.605 187.263 103.748 189.619 103.252 192.011Z" fill="white"/>
<path d="M69.4007 186.384C69.3564 186.376 69.3121 186.358 69.2767 186.331C69.0996 186.217 69.0553 185.987 69.1616 185.82C71.6766 181.902 77.7252 185.423 77.7783 185.458C77.9554 185.564 78.0174 185.793 77.9112 185.97C77.8049 186.146 77.5746 186.208 77.3975 186.102C77.3444 186.067 71.9157 182.917 69.7903 186.226C69.7018 186.358 69.5424 186.411 69.4007 186.384Z" fill="white"/>
<path d="M92.1921 188.742C92.0947 188.724 92.015 188.662 91.953 188.583C91.1471 187.347 89.4291 187.903 89.4113 187.903C89.2165 187.965 89.004 187.859 88.942 187.665C88.88 187.471 88.9863 187.259 89.1811 187.197C89.9693 186.933 91.6962 186.8 92.5906 188.177C92.7057 188.353 92.6526 188.583 92.4755 188.689C92.3869 188.742 92.2806 188.759 92.1921 188.742Z" fill="white"/>
<g opacity="0.8">
<g opacity="0.8">
<g opacity="0.8">
<g opacity="0.8">
<g opacity="0.8">
<g opacity="0.8">
<g opacity="0.8">
<path opacity="0.8" d="M97.5184 192.916C97.3236 193.852 97.1376 194.734 96.9516 195.564C95.2425 195.149 94.0115 194.311 94.1532 193.613C94.2949 192.925 95.7738 192.634 97.5184 192.916Z" fill="#D96C63"/>
</g>
</g>
</g>
</g>
</g>
</g>
</g>
<path d="M85.841 187.973C85.6374 188.987 85.0086 189.711 84.4418 189.596C83.875 189.482 83.5828 188.573 83.7865 187.558C83.9902 186.543 84.6189 185.82 85.1857 185.934C85.7525 186.049 86.0536 186.967 85.841 187.973Z" fill="#39393B"/>
<path d="M95.8889 190.003C95.6852 191.018 95.0564 191.742 94.4897 191.627C93.9229 191.512 93.6307 190.603 93.8343 189.589C94.038 188.574 94.6668 187.85 95.2336 187.965C95.8003 188.08 96.1014 188.989 95.8889 190.003Z" fill="#39393B"/>
<path d="M90.7061 192.72C91.1932 192.817 91.5386 192.8 91.5651 192.8C91.6802 192.791 91.7954 192.738 91.8751 192.65C91.9548 192.561 91.9813 192.438 91.9725 192.323L91.326 187.602C91.2906 187.373 91.078 187.205 90.8478 187.241C90.6175 187.276 90.4493 187.488 90.4847 187.717L91.0603 191.926C90.6353 191.864 89.9976 191.688 89.422 191.211C89.2449 191.061 88.9703 191.088 88.8198 191.264C88.6692 191.441 88.6958 191.714 88.8729 191.864C89.5017 192.376 90.1836 192.614 90.7061 192.72Z" fill="#39393B"/>
<path d="M72.019 196.065C71.9482 196.171 69.9822 198.986 67.8833 199.498C67.8745 199.489 67.8745 199.489 67.8745 199.489C67.8568 198.757 67.8656 198.024 67.8745 197.31C67.9453 197.31 69.9556 197.363 72.019 196.065Z" fill="#39393B"/>
<path d="M71.5949 188.66C71.5949 188.66 68.6371 182.413 64.8025 186.075C61.641 189.102 64.404 199.196 69.8946 197.035L71.5949 188.66Z" fill="#EA9B7A"/>
<path d="M64.3278 194.052C62.6098 194.617 61.0954 196.135 60.7058 198.014C60.139 200.82 61.9633 203.556 64.7706 204.129C67.5868 204.694 70.3321 202.876 70.9077 200.079C71.3328 197.979 70.4206 195.914 68.7469 194.776C68.189 194.387 67.5425 194.114 66.834 193.973C66.8163 193.973 66.7986 193.964 66.7809 193.964C66.6835 194.317 66.7278 194.599 66.9226 194.82C67.4894 194.97 68.003 195.226 68.4546 195.561C69.7565 196.549 70.4561 198.217 70.1107 199.92C69.6325 202.285 67.3034 203.82 64.93 203.344C62.5567 202.867 61.0157 200.547 61.4939 198.182C61.8393 196.461 63.1234 195.243 64.7263 194.855L64.3278 194.052Z" fill="#FAAF3A"/>
<path d="M69.664 195.297C69.6817 195.297 69.6906 195.306 69.7083 195.306C69.9385 195.323 70.1511 195.156 70.1688 194.917C70.6027 190.196 67.0249 187.805 66.8744 187.708C66.6796 187.576 66.4139 187.637 66.2811 187.832C66.1482 188.026 66.2102 188.29 66.405 188.423C66.5379 188.511 69.7083 190.646 69.3186 194.847C69.3009 195.059 69.4515 195.253 69.664 195.297Z" fill="#39393B"/>
<path d="M66.2834 191.989C66.372 192.006 66.4782 191.998 66.5668 191.945C66.9919 191.724 68.2405 191.23 68.9224 191.556C69.135 191.662 69.3918 191.574 69.4892 191.362C69.5955 191.151 69.5069 190.895 69.2944 190.798C68.1077 190.224 66.372 191.098 66.1771 191.203C65.9646 191.309 65.8849 191.565 66 191.777C66.0531 191.883 66.1594 191.962 66.2834 191.989Z" fill="#39393B"/>
<path d="M75.3982 178.063C75.3982 178.063 71.4219 188.819 71.2094 190.99C70.9171 193.946 66.994 183.816 70.9348 175.168L75.3982 178.063Z" fill="#39393B"/>
<path d="M141.829 406.122H125.454C125.454 406.122 121.664 388.015 120.397 377.867C119.122 367.711 118.467 343.647 118.467 343.647C118.467 343.647 105.422 347.874 78.1107 346.277C17.5985 342.756 40.5441 298.459 40.5441 298.459C42.5898 301.274 57.9281 305.148 66.4829 306.498C92.7582 309.013 112.728 313.46 126.402 319.337C129.696 320.749 132.618 322.249 135.187 323.828C138.481 325.849 140.544 332 141.793 340.074C145.521 364.34 141.829 406.122 141.829 406.122Z" fill="#39393B"/>
<path d="M127.488 397.396C127.214 397.396 126.974 397.202 126.913 396.928C124.548 385.281 123.76 370.783 123.122 359.135C122.591 349.473 122.095 340.348 120.846 339.254C119.837 338.363 115.648 339.06 110.352 339.934C99.8047 341.681 83.8642 344.31 66.2941 340.243C56.721 338.019 49.6806 333.386 45.3766 326.468C37.9465 314.538 41.3383 299.74 41.3738 299.59C41.4446 299.272 41.7634 299.078 42.0822 299.158C42.401 299.228 42.5959 299.546 42.5162 299.864C42.4807 300.005 39.2129 314.344 46.3862 325.859C50.5219 332.504 57.3143 336.96 66.5687 339.104C83.9173 343.128 99.7162 340.516 110.175 338.787C116.436 337.754 120.217 337.128 121.643 338.381C123.184 339.74 123.618 346.411 124.309 359.073C124.947 370.686 125.735 385.131 128.081 396.699C128.143 397.017 127.94 397.325 127.621 397.387C127.568 397.387 127.524 397.396 127.488 397.396Z" fill="#585859"/>
<path d="M142.147 397.703H142.138L123.93 397.315C123.603 397.306 123.346 397.041 123.355 396.715C123.364 396.388 123.629 396.132 123.957 396.141L142.165 396.529C142.492 396.538 142.749 396.803 142.74 397.129C142.722 397.447 142.457 397.703 142.147 397.703Z" fill="#585859"/>
<path d="M141.381 427.021H129.833L127.601 413.511L126.388 406.126H140.743L140.964 413.511L141.381 427.021Z" fill="#EA9B7A"/>
<path d="M141.376 427.019H129.828L128.163 416.96L127.597 413.51H140.96L141.075 417.092L141.376 427.019Z" fill="#FAAF3A"/>
<path d="M141.075 417.092L128.163 416.96L127.597 413.51H140.96L141.075 417.092Z" fill="#C77E2E"/>
<path d="M169.895 445.205H126.191C125.864 444.614 125.686 443.785 125.616 442.788C125.341 439.099 126.519 433.222 127.094 429.516C127.165 429.084 127.227 428.678 127.272 428.316C127.351 427.698 127.404 427.178 127.404 426.798C127.404 423.772 130.088 424.292 130.088 424.292C134.507 428.616 139.519 422.139 142.442 424.257C142.442 424.257 142.557 424.345 142.831 424.548C143.079 424.742 143.451 425.042 143.965 425.475C144.709 426.092 145.754 426.992 147.171 428.263C150.642 431.378 156.54 433.425 161.562 435.517C162.199 435.781 162.792 436.046 163.35 436.32C163.767 436.522 164.165 436.725 164.537 436.92C168.646 439.126 169.948 441.243 170.249 442.779C170.541 444.261 169.895 445.205 169.895 445.205Z" fill="#0875F7"/>
<path d="M164.55 436.929C163.426 437.82 160.919 439.612 158.909 439.612C158.821 439.612 158.732 439.612 158.644 439.603C157.227 439.488 152.019 436.938 147.777 434.617C145.351 433.285 143.128 431.979 141.534 430.929C138.922 429.208 138.461 428.555 138.364 428.096C137.983 426.376 140.834 425.184 142.836 424.558C143.084 424.752 143.456 425.052 143.969 425.484C141.49 426.155 139.444 427.214 139.541 427.814C139.789 428.326 142.375 430.285 148.557 433.664C153.277 436.241 157.749 438.315 158.741 438.403C160.087 438.509 162.062 437.291 163.355 436.329C163.78 436.523 164.178 436.726 164.55 436.929Z" fill="#084FC7"/>
<path d="M169.891 445.207H126.187C125.859 444.615 125.682 443.786 125.611 442.789H170.254C170.537 444.262 169.891 445.207 169.891 445.207Z" fill="#084FC7"/>
<path d="M130.661 445.207H129.359C130.652 443.733 131.865 441.465 131.706 438.236C131.493 433.93 128.907 431.035 127.101 429.518C127.171 429.085 127.233 428.679 127.278 428.318C129.217 429.791 132.485 433.03 132.742 438.183C132.901 441.271 131.883 443.574 130.661 445.207Z" fill="#084FC7"/>
<path d="M146.44 430.838C146.121 430.838 145.82 430.617 145.741 430.291C145.643 429.903 145.882 429.514 146.263 429.417L148.991 428.738C149.38 428.641 149.77 428.879 149.867 429.258C149.965 429.647 149.726 430.035 149.345 430.132L146.617 430.811C146.555 430.829 146.502 430.838 146.44 430.838Z" fill="white"/>
<path d="M143.728 428.571C143.401 428.571 143.108 428.35 143.029 428.024C142.931 427.635 143.17 427.247 143.551 427.15L146.279 426.471C146.668 426.374 147.058 426.612 147.155 426.991C147.253 427.38 147.014 427.768 146.633 427.865L143.905 428.544C143.843 428.562 143.781 428.571 143.728 428.571Z" fill="white"/>
<path d="M149.167 432.417C148.848 432.417 148.547 432.197 148.467 431.87C148.37 431.482 148.609 431.094 148.99 430.997L151.717 430.317C152.107 430.22 152.496 430.459 152.594 430.838C152.691 431.226 152.452 431.614 152.071 431.712L149.344 432.391C149.291 432.409 149.229 432.417 149.167 432.417Z" fill="white"/>
<path d="M151.893 433.936C151.574 433.936 151.273 433.715 151.194 433.388C151.096 433 151.335 432.612 151.716 432.524L154.444 431.844C154.833 431.747 155.223 431.985 155.32 432.365C155.418 432.753 155.179 433.141 154.798 433.238L152.07 433.918C152.008 433.936 151.946 433.936 151.893 433.936Z" fill="white"/>
<path d="M154.869 435.349C154.551 435.349 154.249 435.128 154.17 434.802C154.072 434.413 154.311 434.025 154.692 433.937L157.42 433.257C157.809 433.16 158.199 433.398 158.297 433.778C158.394 434.166 158.155 434.554 157.774 434.652L155.046 435.331C154.984 435.34 154.922 435.349 154.869 435.349Z" fill="white"/>
<path d="M158.099 436.539C157.771 436.539 157.479 436.318 157.399 435.992C157.302 435.604 157.541 435.215 157.922 435.118L160.649 434.439C161.039 434.342 161.429 434.58 161.526 434.96C161.623 435.348 161.384 435.736 161.004 435.833L158.276 436.513C158.214 436.539 158.161 436.539 158.099 436.539Z" fill="white"/>
<path d="M202.142 297.798V301.416C202.142 303.498 200.884 305.183 199.326 305.183H3.19507C1.63644 305.183 0.378906 303.498 0.378906 301.416V297.798C0.378906 295.715 1.63644 294.03 3.19507 294.03H199.317C200.884 294.03 202.142 295.715 202.142 297.798Z" fill="#F47E20"/>
<path d="M202.142 298.947H0.378906V300.606H202.142V298.947Z" fill="#FBAA1C"/>
<path d="M196.25 314.475H11.8882C11.0646 314.475 10.3916 313.804 10.3916 312.984V305.13H197.737V312.984C197.737 313.804 197.073 314.475 196.25 314.475Z" fill="#FBAA1C"/>
<path d="M187.965 360.573H23.0952V366.98H187.965V360.573Z" fill="#FBAA1C"/>
<path d="M11.2115 446.344L43.1281 314.477H31.9165L0 446.344H11.2115Z" fill="#F47E20"/>
<path d="M199.637 446.344L167.72 314.477H178.932L210.848 446.344H199.637Z" fill="#F47E20"/>
<path d="M18.2855 263.722L14.8276 264.25L18.8245 290.252L22.2823 289.724L18.2855 263.722Z" fill="#FAAF3A"/>
<path d="M18.2903 263.712L14.8276 264.242L15.5892 261.612L15.9878 260.244L16.7759 261.427L18.2903 263.712Z" fill="#EA9B7A"/>
<path d="M21.9896 287.828L18.5317 288.356L18.8227 290.249L22.2805 289.721L21.9896 287.828Z" fill="#39393B"/>
<path d="M22.2825 291.252L19.2803 291.711C19.1563 291.728 19.0324 291.64 19.0147 291.516L18.8198 290.237L22.2825 289.708L22.4773 290.987C22.5039 291.119 22.4153 291.234 22.2825 291.252Z" fill="#DF615C"/>
<path d="M16.778 261.427L15.5913 261.612L15.9898 260.244L16.778 261.427Z" fill="#39393B"/>
<path d="M21.785 286.475L18.3271 287.003L18.535 288.355L21.9928 287.827L21.785 286.475Z" fill="#C77E2E"/>
<path d="M15.8901 265.397L18.848 284.651C18.8745 284.792 19.0074 284.898 19.1491 284.872C19.2908 284.845 19.397 284.713 19.3705 284.572L16.4126 265.318C16.386 265.177 16.2532 265.071 16.1115 265.097C15.961 265.115 15.8635 265.247 15.8901 265.397Z" fill="#C77E2E"/>
<path d="M17.2384 265.185L20.1963 284.439C20.2228 284.58 20.3557 284.686 20.4974 284.66C20.6479 284.633 20.7453 284.501 20.7188 284.36L17.7609 265.106C17.7343 264.964 17.6015 264.858 17.4598 264.885C17.3181 264.903 17.2207 265.044 17.2384 265.185Z" fill="#C77E2E"/>
<path d="M24.5401 263.84L21.042 263.851L21.1288 290.156L24.6269 290.144L24.5401 263.84Z" fill="#21B573"/>
<path d="M24.5474 263.835L21.0405 263.844L22.1918 261.356L22.7851 260.068L23.3785 261.347L24.5474 263.835Z" fill="#EA9B7A"/>
<path d="M24.6255 288.23L21.1274 288.241L21.1338 290.156L24.6318 290.145L24.6255 288.23Z" fill="#39393B"/>
<path d="M24.4075 291.658L21.3699 291.667C21.2371 291.667 21.1396 291.561 21.1396 291.437V290.149L24.6377 290.14V291.428C24.6377 291.561 24.5314 291.658 24.4075 291.658Z" fill="#DF615C"/>
<path d="M23.382 261.347L22.1953 261.356L22.7887 260.068L23.382 261.347Z" fill="#39393B"/>
<path d="M24.6201 286.862L21.1221 286.874L21.1266 288.241L24.6246 288.23L24.6201 286.862Z" fill="#217C58"/>
<path d="M21.9214 265.14L21.9834 284.615C21.9834 284.765 22.1074 284.88 22.2491 284.88C22.3996 284.88 22.5147 284.756 22.5147 284.615L22.4527 265.14C22.4527 264.99 22.3288 264.876 22.1871 264.876C22.0365 264.876 21.9214 264.99 21.9214 265.14Z" fill="#217C58"/>
<path d="M23.2949 265.132L23.3569 284.607C23.3569 284.757 23.4809 284.872 23.6226 284.872C23.7731 284.872 23.8883 284.748 23.8883 284.607L23.8263 265.132C23.8263 264.982 23.7023 264.868 23.5606 264.868C23.41 264.868 23.2949 264.982 23.2949 265.132Z" fill="#217C58"/>
<path d="M27.1243 263.704L23.4126 289.748L26.876 290.238L30.5877 264.194L27.1243 263.704Z" fill="#0875F7"/>
<path d="M30.5911 264.207L27.1196 263.713L28.6163 261.41L29.3867 260.219L29.803 261.578L30.5911 264.207Z" fill="#EA9B7A"/>
<path d="M27.1534 288.362L23.6899 287.872L23.4197 289.767L26.8832 290.257L27.1534 288.362Z" fill="#39393B"/>
<path d="M26.4292 291.719L23.4271 291.296C23.3031 291.278 23.2145 291.164 23.2322 291.031L23.4182 289.752L26.8809 290.246L26.6949 291.525C26.6772 291.649 26.562 291.737 26.4292 291.719Z" fill="#DF615C"/>
<path d="M29.8053 261.578L28.6187 261.41L29.3891 260.219L29.8053 261.578Z" fill="#39393B"/>
<path d="M23.8806 286.502L23.6875 287.856L27.1509 288.347L27.344 286.992L23.8806 286.502Z" fill="#084FC7"/>
<path d="M27.8045 265.124L25.0592 284.405C25.0415 284.555 25.1389 284.687 25.2895 284.705C25.44 284.723 25.5728 284.626 25.5906 284.476L28.3359 265.195C28.3536 265.045 28.2562 264.913 28.1056 264.895C27.9639 264.877 27.8222 264.974 27.8045 265.124Z" fill="#084FC7"/>
<path d="M29.1532 265.307L26.4078 284.588C26.3901 284.738 26.4875 284.87 26.6381 284.888C26.7886 284.906 26.9215 284.808 26.9392 284.658L29.6845 265.378C29.7022 265.228 29.6048 265.096 29.4542 265.078C29.3126 265.06 29.1709 265.166 29.1532 265.307Z" fill="#084FC7"/>
<path d="M31.7221 274.237L31.545 275.649L31.3767 276.928L31.1199 278.879L30.9605 280.14L30.7037 282.108L30.5442 283.352L30.2874 285.329L30.128 286.564L29.8712 288.559L29.7118 289.776L29.4461 291.788L29.2956 292.988L29.1627 294.029H15.4007L15.2679 292.988L15.1085 291.788L14.8517 289.776L14.6923 288.559L14.4354 286.564L14.276 285.329L14.0192 283.352L13.8509 282.108L13.603 280.14L13.4347 278.879L13.1868 276.928L13.0185 275.649L12.8325 274.237H31.7221Z" fill="#DF615C"/>
<path d="M31.546 275.649L31.3777 276.929H13.1878L13.0195 275.649H31.546Z" fill="#B11722"/>
<path d="M31.1222 278.877L30.9628 280.139H13.6053L13.437 278.877H31.1222Z" fill="#B11722"/>
<path d="M30.7043 282.108L30.5449 283.353H14.0198L13.8516 282.108H30.7043Z" fill="#B11722"/>
<path d="M30.2902 285.33L30.1308 286.566H14.4382L14.2788 285.33H30.2902Z" fill="#B11722"/>
<path d="M29.8699 288.559L29.7105 289.776H14.8503L14.6909 288.559H29.8699Z" fill="#B11722"/>
<path d="M29.446 291.79L29.2955 292.99H15.2678L15.1084 291.79H29.446Z" fill="#B11722"/>
<path d="M200.995 224.099L189.261 273.549L188.951 274.847L188.163 278.173C187.818 279.62 186.534 280.635 185.046 280.635H105.999C103.926 280.635 102.403 278.712 102.881 276.708L115.713 222.635C116.059 221.196 117.343 220.181 118.831 220.181H197.878C199.942 220.173 201.474 222.096 200.995 224.099Z" fill="#39393B"/>
<path d="M189.264 273.549L188.954 274.846H106.877V273.549H189.264Z" fill="#585859"/>
<path d="M137.86 232.41C137.205 235.914 133.822 238.755 130.306 238.755C126.79 238.755 124.47 235.914 125.125 232.41C125.781 228.907 129.164 226.066 132.679 226.066C136.195 226.066 138.515 228.907 137.86 232.41Z" fill="#FAAF3A"/>
<path d="M130.668 231.194C130.535 231.891 130.18 232.464 129.879 232.464C129.569 232.464 129.428 231.9 129.561 231.194C129.693 230.497 130.048 229.923 130.349 229.923C130.65 229.923 130.792 230.497 130.668 231.194Z" fill="#39393B"/>
<path d="M133.984 231.194C133.851 231.891 133.497 232.464 133.196 232.464C132.886 232.464 132.744 231.9 132.877 231.194C133.01 230.497 133.364 229.923 133.665 229.923C133.975 229.923 134.117 230.497 133.984 231.194Z" fill="#39393B"/>
<path d="M130.957 235.498C128.22 235.498 128.105 232.771 128.105 232.745C128.096 232.595 128.22 232.445 128.379 232.418C128.539 232.383 128.663 232.48 128.672 232.63C128.672 232.727 128.778 234.951 131.072 234.951C133.356 234.951 134.295 232.727 134.339 232.63C134.401 232.48 134.57 232.392 134.711 232.418C134.853 232.453 134.924 232.595 134.862 232.745C134.827 232.771 133.693 235.498 130.957 235.498Z" fill="#39393B"/>
<path d="M174.391 262.034C174.462 265.316 180.041 269.429 180.041 269.429C180.041 269.429 186.524 265.316 187.312 262.034C188.162 258.478 184.088 257.384 181.068 260.066C178.633 257.384 174.32 258.478 174.391 262.034Z" fill="#DF615C"/>
<path d="M162.59 252.522C162.209 255.928 159.136 258.681 155.727 258.681C152.317 258.681 149.846 255.919 150.227 252.522C150.608 249.116 153.681 246.363 157.09 246.363C160.5 246.354 162.962 249.116 162.59 252.522Z" fill="#585859"/>
<path d="M121.958 220.17L108.294 280.633H105.991C103.919 280.633 102.396 278.709 102.874 276.706L115.706 222.632C116.052 221.194 117.336 220.17 118.823 220.17H121.958Z" fill="#585859"/>
<path d="M144.86 280.635L142.46 294.074H150.378L152.778 280.635H144.86Z" fill="white"/>
<path d="M130.601 291.763L132.222 289.495C132.798 288.683 133.736 288.207 134.737 288.207H156.452C157.603 288.207 158.657 288.842 159.188 289.857L160.277 291.939C160.791 292.91 160.083 294.084 158.976 294.084H131.797C130.61 294.075 129.911 292.734 130.601 291.763Z" fill="white"/>
<path d="M85.356 294.066H150.588L151.297 291.613C151.74 290.068 150.579 288.533 148.968 288.533H88.7743C87.6939 288.533 86.7463 289.248 86.4452 290.28L85.356 294.066Z" fill="white"/>
<path d="M561.022 412.308H498.995C497.817 412.308 496.861 411.355 496.861 410.182V409.202C496.861 408.028 497.817 407.075 498.995 407.075H561.022C562.199 407.075 563.156 408.028 563.156 409.202V410.182C563.156 411.355 562.199 412.308 561.022 412.308Z" fill="#39393B"/>
<path d="M499.782 349.111H560.383C561.393 349.111 562.207 349.922 562.207 350.928V358.349C562.207 359.355 561.393 360.167 560.383 360.167H499.782C498.773 360.167 497.958 359.355 497.958 358.349V350.928C497.958 349.922 498.773 349.111 499.782 349.111Z" fill="#585859"/>
<path d="M514.08 302.077C514.08 302.077 488.531 297.047 481.402 279.284C474.273 261.521 500.345 248.197 514.08 257.736C528.781 267.945 514.08 302.077 514.08 302.077Z" fill="#21B573"/>
<path d="M529.278 348.748C529.057 348.748 528.853 348.58 528.818 348.351C526.373 331.85 516.499 308.113 508.662 291.109C500.151 272.667 492.128 257.948 492.048 257.798C491.924 257.578 492.013 257.295 492.234 257.172C492.455 257.048 492.739 257.137 492.863 257.357C492.943 257.507 500.984 272.252 509.512 290.721C517.385 307.787 527.286 331.612 529.747 348.219C529.783 348.475 529.615 348.704 529.358 348.739C529.322 348.748 529.305 348.748 529.278 348.748Z" fill="#39393B"/>
<path d="M513.127 300.366C512.959 300.366 512.799 300.277 512.72 300.118C501.606 279.497 483.557 264.531 483.38 264.381C483.185 264.222 483.159 263.931 483.318 263.737C483.478 263.543 483.77 263.516 483.965 263.675C484.151 263.825 502.332 278.897 513.534 299.686C513.658 299.907 513.57 300.189 513.348 300.313C513.278 300.348 513.198 300.366 513.127 300.366Z" fill="#39393B"/>
<path d="M513.633 301.84C513.5 301.84 513.376 301.787 513.279 301.681C505.175 292.177 496.869 286.265 491.334 282.982C485.329 279.426 481.194 278.094 481.158 278.085C480.919 278.006 480.778 277.75 480.857 277.503C480.937 277.256 481.194 277.123 481.442 277.203C481.61 277.256 485.701 278.562 491.785 282.171C497.391 285.489 505.795 291.471 513.987 301.081C514.155 301.275 514.129 301.566 513.934 301.734C513.845 301.804 513.739 301.84 513.633 301.84Z" fill="#39393B"/>
<path d="M511.381 296.431C511.186 296.431 511.009 296.308 510.947 296.123C504.713 277.901 507.006 255.761 507.033 255.541C507.059 255.285 507.29 255.108 507.538 255.135C507.794 255.161 507.971 255.391 507.945 255.638C507.918 255.858 505.651 277.804 511.815 295.823C511.895 296.061 511.771 296.326 511.523 296.405C511.478 296.423 511.434 296.431 511.381 296.431Z" fill="#39393B"/>
<path d="M512.951 300.039C512.729 300.039 512.534 299.88 512.499 299.651C510.595 288.118 512.056 278.711 513.624 272.852C515.324 266.49 517.449 262.908 517.538 262.758C517.671 262.537 517.954 262.466 518.175 262.599C518.397 262.731 518.468 263.013 518.335 263.234C518.317 263.269 516.174 266.887 514.509 273.135C512.977 278.897 511.542 288.162 513.411 299.51C513.455 299.757 513.278 299.995 513.03 300.039C513.004 300.039 512.977 300.039 512.951 300.039Z" fill="#39393B"/>
<path d="M541.039 306.721C541.039 306.721 566.845 303.2 575.019 285.896C583.193 268.583 557.953 253.75 543.678 262.459C528.393 271.778 541.039 306.721 541.039 306.721Z" fill="#21B573"/>
<path d="M531.255 347.241C531.246 347.241 531.255 347.241 531.255 347.241C530.998 347.241 530.786 347.029 530.795 346.773C530.892 338.275 532.752 328.595 536.321 318.006C539.172 309.544 543.104 300.482 548.028 291.075C556.397 275.06 564.828 263.421 564.916 263.306C565.067 263.103 565.359 263.05 565.563 263.2C565.766 263.35 565.82 263.641 565.669 263.844C565.589 263.959 557.194 275.554 548.852 291.508C541.165 306.217 531.955 327.739 531.733 346.782C531.716 347.038 531.503 347.241 531.255 347.241Z" fill="#39393B"/>
<path d="M542.13 305.062C542.05 305.062 541.962 305.044 541.891 304.991C541.669 304.859 541.607 304.576 541.74 304.356C554.156 284.263 573.205 270.286 573.4 270.145C573.604 269.995 573.896 270.039 574.047 270.242C574.197 270.445 574.153 270.736 573.949 270.886C573.763 271.027 554.856 284.899 542.537 304.832C542.431 304.991 542.28 305.062 542.13 305.062Z" fill="#39393B"/>
<path d="M541.538 306.508C541.423 306.508 541.308 306.464 541.219 306.384C541.033 306.208 541.025 305.917 541.202 305.732C549.96 296.616 558.701 291.145 564.493 288.163C570.78 284.924 574.934 283.857 575.111 283.812C575.359 283.751 575.607 283.901 575.669 284.148C575.731 284.395 575.58 284.642 575.332 284.704C575.288 284.713 571.081 285.798 564.882 288.992C559.161 291.939 550.527 297.357 541.866 306.367C541.777 306.464 541.662 306.508 541.538 306.508Z" fill="#39393B"/>
<path d="M544.107 301.241C544.045 301.241 543.992 301.233 543.93 301.206C543.691 301.109 543.584 300.844 543.673 300.606C550.899 282.976 549.934 260.942 549.925 260.721C549.916 260.465 550.111 260.254 550.368 260.236C550.616 260.218 550.837 260.421 550.855 260.677C550.864 260.898 551.838 283.134 544.541 300.959C544.461 301.136 544.284 301.241 544.107 301.241Z" fill="#39393B"/>
<path d="M542.324 304.752C542.288 304.752 542.253 304.752 542.217 304.744C541.969 304.691 541.81 304.444 541.872 304.196C544.423 292.972 543.537 283.645 542.35 277.804C541.057 271.468 539.144 267.735 539.127 267.691C539.012 267.462 539.1 267.188 539.322 267.074C539.552 266.959 539.826 267.047 539.941 267.268C540.021 267.426 541.925 271.124 543.245 277.583C544.458 283.53 545.361 293.008 542.775 304.399C542.722 304.602 542.536 304.752 542.324 304.752Z" fill="#39393B"/>
<path d="M531.107 273.225C531.107 273.225 509.242 259.124 509.215 239.994C509.189 220.863 538.36 218.11 547.579 232.034C557.453 246.938 531.107 273.225 531.107 273.225Z" fill="#21B573"/>
<path d="M528.051 322.216C528.016 322.216 527.981 322.216 527.945 322.207C527.697 322.145 527.547 321.898 527.6 321.651C531.461 305.423 531.115 279.728 530.15 261.038C529.105 240.769 527.113 224.127 527.095 223.968C527.068 223.712 527.245 223.483 527.502 223.456C527.75 223.43 527.989 223.606 528.016 223.862C528.034 224.03 530.026 240.699 531.08 260.994C532.054 279.745 532.391 305.529 528.512 321.863C528.45 322.074 528.264 322.216 528.051 322.216Z" fill="#39393B"/>
<path d="M531.025 271.309C530.795 271.309 530.591 271.133 530.564 270.903C527.908 247.643 516.705 227.083 516.59 226.88C516.466 226.659 516.546 226.377 516.776 226.253C516.997 226.13 517.281 226.209 517.405 226.439C517.52 226.642 528.811 247.36 531.485 270.806C531.512 271.062 531.335 271.291 531.078 271.318C531.06 271.309 531.043 271.309 531.025 271.309Z" fill="#39393B"/>
<path d="M530.947 272.862C530.752 272.862 530.575 272.738 530.513 272.544C526.519 260.72 521.001 252.169 517.078 247.078C512.827 241.554 509.48 238.801 509.444 238.774C509.25 238.615 509.214 238.324 509.382 238.13C509.542 237.936 509.834 237.901 510.029 238.068C510.171 238.183 513.474 240.901 517.787 246.495C521.763 251.649 527.342 260.296 531.38 272.253C531.46 272.491 531.336 272.756 531.088 272.835C531.044 272.862 530.991 272.862 530.947 272.862Z" fill="#39393B"/>
<path d="M530.867 267.012C530.858 267.012 530.849 267.012 530.84 267.012C530.583 267.003 530.389 266.783 530.406 266.527C531.389 247.308 541.751 227.586 541.848 227.383C541.972 227.163 542.247 227.074 542.477 227.189C542.707 227.304 542.787 227.586 542.672 227.816C542.566 228.01 532.302 247.555 531.336 266.571C531.319 266.827 531.115 267.012 530.867 267.012Z" fill="#39393B"/>
<path d="M530.98 270.939C530.945 270.939 530.918 270.939 530.883 270.93C530.635 270.877 530.476 270.63 530.529 270.383C533.044 258.964 537.915 250.705 541.563 245.781C545.522 240.434 548.834 237.831 548.976 237.725C549.179 237.566 549.472 237.601 549.622 237.804C549.781 238.007 549.746 238.298 549.542 238.448C549.507 238.475 546.168 241.104 542.281 246.355C538.694 251.199 533.903 259.335 531.432 270.577C531.388 270.797 531.193 270.939 530.98 270.939Z" fill="#39393B"/>
<path d="M557.822 319.735L557.06 321.747L556.582 323.027L555.201 326.68L554.714 327.959L553.297 331.718L552.818 332.989L546.726 349.102H513.445L507.352 332.989L506.874 331.718L505.457 327.959L504.97 326.68L503.589 323.027L503.11 321.747L502.349 319.735C501.826 318.35 502.854 316.876 504.333 316.876H555.847C557.317 316.876 558.336 318.35 557.822 319.735Z" fill="#0875F7"/>
<path d="M557.053 321.748L556.575 323.028H503.581L503.103 321.748H557.053Z" fill="#084FC7"/>
<path d="M555.194 326.688L554.707 327.959H505.45L504.963 326.688H555.194Z" fill="#084FC7"/>
<path d="M553.291 331.718L552.812 332.989H507.355L506.868 331.718H553.291Z" fill="#084FC7"/>
<path d="M521.17 360.158L519.319 366.088L493.628 448.593H488.607L504.902 367.774L506.434 360.158H521.17Z" fill="#39393B"/>
<path d="M571.702 448.593H566.68L540.228 363.653L539.147 360.158H553.866L554.238 362.012H554.247L571.702 448.593Z" fill="#39393B"/>
<path d="M561.022 400.934H498.995C497.817 400.934 496.861 399.981 496.861 398.807V397.828C496.861 396.654 497.817 395.701 498.995 395.701H561.013C562.191 395.701 563.147 396.654 563.147 397.828V398.807C563.156 399.981 562.199 400.934 561.022 400.934Z" fill="#585859"/>
<path d="M156.579 148.142C169.843 148.142 180.596 137.562 180.596 124.511C180.596 111.46 169.843 100.88 156.579 100.88C143.315 100.88 132.562 111.46 132.562 124.511C132.562 137.562 143.315 148.142 156.579 148.142Z" fill="#CED3E6"/>
<path d="M156.58 145.071C169.844 145.071 180.597 134.491 180.597 121.44C180.597 108.389 169.844 97.8088 156.58 97.8088C143.315 97.8088 132.562 108.389 132.562 121.44C132.562 134.491 143.315 145.071 156.58 145.071Z" fill="#0875F7"/>
<path d="M156.581 140.65C167.361 140.65 176.1 132.05 176.1 121.44C176.1 110.831 167.361 102.23 156.581 102.23C145.802 102.23 137.063 110.831 137.063 121.44C137.063 132.05 145.802 140.65 156.581 140.65Z" fill="white"/>
<path d="M176.11 121.44C176.11 121.952 176.092 122.455 176.048 122.958C175.259 113.075 166.829 105.265 156.582 105.265C146.336 105.265 137.914 113.075 137.117 122.958C137.082 122.455 137.055 121.952 137.055 121.44C137.055 110.842 145.814 102.23 156.574 102.23C167.351 102.23 176.11 110.842 176.11 121.44Z" fill="#CED3E6"/>
<path d="M156.581 123.435C156.43 123.435 156.28 123.365 156.191 123.241L146.618 110.552C146.458 110.34 146.503 110.04 146.715 109.881C146.928 109.723 147.238 109.767 147.397 109.978L156.74 122.359L167.358 117.77C167.606 117.664 167.89 117.77 168.005 118.017C168.111 118.264 168.005 118.547 167.757 118.652L156.775 123.4C156.713 123.426 156.651 123.435 156.581 123.435Z" fill="#39393B"/>
</svg>
